{"glyphs":{"0":{"ha":873,"x_min":0,"x_max":0,"o":"m 437 684 b 97 335 253 687 94 524 b 197 88 97 238 130 155 b 437 -14 262 20 343 -14 b 677 88 530 -14 610 20 b 777 335 743 156 777 238 b 437 684 777 538 623 684 z m 436 603 b 615 527 506 603 566 578 b 689 334 665 476 689 412 b 615 143 689 257 665 193 b 436 68 566 93 506 68 b 257 143 365 68 305 93 b 184 334 209 193 184 256 b 257 528 184 412 209 477 b 436 603 305 578 365 603 z "},"1":{"ha":547,"x_min":0,"x_max":0,"o":"m 395 671 l 283 671 l 61 453 l 113 397 l 311 591 l 311 0 l 395 0 z "},"2":{"ha":720,"x_min":0,"x_max":0,"o":"m 621 79 l 285 79 b 624 471 505 209 624 332 b 345 685 624 604 521 685 b 90 589 250 685 148 646 l 140 526 b 336 603 186 569 269 603 b 536 463 461 603 536 551 b 524 397 536 440 532 418 b 371 230 504 344 453 288 b 114 71 327 198 241 145 l 114 0 l 621 0 z "},"3":{"ha":762,"x_min":0,"x_max":0,"o":"m 358 -236 b 665 14 522 -236 665 -155 b 464 236 665 130 585 208 b 627 460 568 269 627 347 b 364 685 627 601 506 685 b 96 596 255 685 151 648 l 136 536 b 354 603 193 581 265 603 b 538 447 458 603 538 543 b 264 271 538 306 393 271 l 264 196 b 578 4 463 196 578 136 b 367 -154 578 -95 484 -154 b 109 -50 256 -154 170 -119 l 49 -107 b 358 -236 119 -193 222 -236 z "},"4":{"ha":722,"x_min":0,"x_max":0,"o":"m 163 79 l 501 574 l 501 79 z m 688 79 l 582 79 l 582 669 l 464 669 l 56 69 l 56 0 l 501 0 l 501 -222 l 582 -222 l 582 0 l 688 0 z "},"5":{"ha":709,"x_min":0,"x_max":0,"o":"m 345 -236 b 627 41 492 -234 627 -130 b 552 233 627 119 602 183 b 361 309 503 283 439 309 b 197 271 292 309 238 296 l 197 589 l 610 589 l 610 669 l 114 669 l 114 203 l 191 179 b 340 228 227 212 277 228 b 541 37 456 228 541 151 b 484 -101 541 -20 522 -66 b 350 -153 447 -136 402 -153 b 143 -57 256 -153 195 -119 l 83 -114 b 345 -236 149 -193 227 -235 z "},"6":{"ha":802,"x_min":0,"x_max":0,"o":"m 705 288 b 627 479 705 367 679 431 b 425 551 574 527 507 551 b 184 440 321 551 231 511 b 458 860 201 720 292 860 b 633 832 527 860 585 850 l 663 909 b 468 942 607 931 542 942 b 97 371 168 939 98 686 b 399 -14 97 119 216 -14 b 623 71 493 -14 568 14 b 705 288 678 127 705 199 z m 618 278 b 411 66 618 155 533 66 b 191 288 282 66 191 157 b 415 469 191 402 288 469 b 618 278 532 469 618 392 z "},"7":{"ha":610,"x_min":0,"x_max":0,"o":"m 554 603 l 554 669 l 41 669 l 41 585 l 456 585 l 132 -201 l 207 -233 z "},"8":{"ha":878,"x_min":0,"x_max":0,"o":"m 437 -14 b 766 250 613 -14 766 72 b 579 479 766 369 693 445 b 724 697 669 517 724 591 b 437 942 724 855 591 942 b 144 696 281 942 144 857 b 296 478 144 589 201 516 b 111 240 182 443 111 361 b 437 -14 111 64 266 -14 z m 437 857 b 636 692 551 857 636 797 b 437 514 636 581 551 514 b 232 693 320 514 232 581 b 437 857 232 799 321 857 z m 437 436 b 677 254 562 436 677 381 b 437 71 677 127 561 71 b 199 258 312 71 199 130 b 437 436 199 383 315 436 z "},"9":{"ha":773,"x_min":0,"x_max":0,"o":"m 180 390 b 387 602 180 514 265 602 b 608 380 517 602 608 511 b 383 199 608 267 510 199 b 180 390 267 199 180 276 z m 330 -236 b 701 297 576 -236 705 14 b 400 684 698 550 581 684 b 176 599 306 684 231 655 b 93 380 121 543 93 469 b 172 189 93 301 119 237 b 374 117 225 141 292 117 b 614 229 479 117 567 157 b 340 -150 600 32 513 -150 b 164 -117 276 -150 217 -139 l 129 -196 b 330 -236 182 -222 250 -236 z "}," ":{"ha":444,"x_min":0,"x_max":0,"o":""},"!":{"ha":515,"x_min":0,"x_max":0,"o":"m 296 917 l 215 917 l 215 264 l 296 264 z m 254 139 b 180 65 216 139 180 103 b 254 -14 180 21 214 -14 b 335 65 300 -14 335 20 b 254 139 335 104 299 139 z "},"\"":{"ha":540,"x_min":0,"x_max":0,"o":"m 111 999 l 111 551 l 192 551 l 192 999 z m 349 999 l 349 551 l 429 551 l 429 999 z "},"#":{"ha":1122,"x_min":0,"x_max":0,"o":"m 368 268 l 449 570 l 753 570 l 671 268 z m 986 268 l 746 268 l 827 570 l 1039 570 l 1039 650 l 847 650 l 911 888 l 842 903 l 774 650 l 469 650 l 533 888 l 464 903 l 396 650 l 136 650 l 136 570 l 375 570 l 293 268 l 83 268 l 83 187 l 272 187 l 210 -45 l 279 -62 l 346 187 l 650 187 l 587 -45 l 657 -62 l 724 187 l 986 187 z "},"$":{"ha":760,"x_min":0,"x_max":0,"o":"m 401 -14 b 635 179 554 -6 635 71 b 408 386 635 292 561 353 b 215 503 265 418 215 444 b 351 606 215 567 262 606 b 567 561 425 606 497 591 l 596 636 b 400 682 531 664 466 679 l 400 872 l 321 872 l 321 681 b 129 500 203 668 129 604 b 364 313 129 396 196 345 b 549 178 487 288 549 243 b 399 65 549 111 488 65 b 150 131 309 65 227 87 l 111 56 b 322 -11 178 18 248 -3 l 322 -192 l 401 -192 z "},"%":{"ha":1389,"x_min":0,"x_max":0,"o":"m 397 -64 l 1051 1071 l 989 1103 l 335 -29 z m 289 1100 b 41 789 123 1100 41 950 b 289 465 41 623 123 465 b 534 789 454 465 534 623 b 289 1100 534 949 454 1100 z m 363 1003 b 450 787 427 964 450 874 b 288 542 450 667 408 542 b 126 787 168 542 126 667 b 213 1003 126 874 150 963 b 363 1003 255 1030 320 1030 z m 1101 625 b 854 314 937 625 854 475 b 1101 -9 854 148 935 -9 b 1348 314 1267 -9 1348 149 b 1101 625 1348 474 1267 625 z m 1175 528 b 1263 313 1240 489 1263 399 b 1100 66 1263 193 1220 66 b 939 313 981 66 939 193 b 1025 528 939 399 962 488 b 1175 528 1067 555 1133 555 z "},"&":{"ha":928,"x_min":0,"x_max":0,"o":"m 753 243 b 663 424 753 316 723 376 l 865 424 l 865 498 l 524 498 l 524 424 b 664 245 608 395 664 326 b 424 68 664 123 547 68 b 184 250 300 68 184 125 b 424 424 184 372 302 424 l 424 498 b 218 672 307 498 218 564 b 424 832 218 775 307 832 b 623 671 537 832 623 773 l 710 676 b 424 914 710 830 578 914 b 131 675 267 914 131 830 b 282 464 131 571 188 500 b 97 233 170 429 97 349 b 424 -14 97 62 253 -14 b 753 243 600 -14 753 68 z "},"'":{"ha":302,"x_min":0,"x_max":0,"o":"m 111 999 l 111 551 l 192 551 l 192 999 z "},"(":{"ha":504,"x_min":0,"x_max":0,"o":"m 414 1039 b 111 435 220 887 111 693 b 410 -172 111 186 211 -16 l 461 -109 b 195 435 283 29 195 210 b 463 979 195 673 289 846 z "},")":{"ha":504,"x_min":0,"x_max":0,"o":"m 90 -174 b 393 431 285 -22 393 173 b 94 1038 393 678 294 881 l 43 974 b 310 431 221 836 310 654 b 41 -114 310 193 215 20 z "},"*":{"ha":748,"x_min":0,"x_max":0,"o":"m 411 733 l 652 730 l 648 818 l 407 802 l 484 1031 l 397 1054 l 342 818 l 146 964 l 97 889 l 306 761 l 107 624 l 161 553 l 345 707 l 416 476 l 501 511 z "},"+":{"ha":749,"x_min":0,"x_max":0,"o":"m 667 400 l 415 400 l 415 652 l 335 652 l 335 400 l 83 400 l 83 319 l 335 319 l 335 68 l 415 68 l 415 319 l 667 319 z "},",":{"ha":395,"x_min":0,"x_max":0,"o":"m 184 -114 b 278 195 247 11 278 114 b 199 296 278 258 245 296 b 123 222 155 296 123 262 b 205 149 123 177 155 148 b 118 -82 195 87 165 11 l 184 -114 z "},"-":{"ha":667,"x_min":0,"x_max":0,"o":"m 570 400 l 97 400 l 97 319 l 570 319 z "},".":{"ha":390,"x_min":0,"x_max":0,"o":"m 196 140 b 118 64 154 140 118 105 b 196 -14 118 22 154 -14 b 272 64 237 -14 272 22 b 196 140 272 105 237 140 z "},"/":{"ha":491,"x_min":0,"x_max":0,"o":"m 109 -186 l 450 1089 l 380 1104 l 39 -168 z "},":":{"ha":390,"x_min":0,"x_max":0,"o":"m 196 686 b 118 610 154 686 118 651 b 196 532 118 568 154 532 b 272 610 237 532 272 568 b 196 686 272 651 237 686 z m 196 140 b 118 64 154 140 118 105 b 196 -14 118 22 154 -14 b 272 64 237 -14 272 22 b 196 140 272 105 237 140 z "},";":{"ha":402,"x_min":0,"x_max":0,"o":"m 207 686 b 129 610 165 686 129 651 b 207 532 129 568 165 532 b 283 610 248 532 283 568 b 207 686 283 651 248 686 z m 192 -114 b 285 195 254 10 285 113 b 205 296 285 258 252 296 b 131 222 161 296 131 262 b 212 149 131 177 161 148 b 125 -82 201 87 172 11 z "},"<":{"ha":728,"x_min":0,"x_max":0,"o":"m 644 136 l 176 354 l 644 572 l 611 646 l 83 400 l 83 309 l 611 62 z "},"=":{"ha":764,"x_min":0,"x_max":0,"o":"m 673 525 l 90 525 l 90 444 l 673 444 z m 673 261 l 90 261 l 90 180 l 673 180 z "},">":{"ha":728,"x_min":0,"x_max":0,"o":"m 644 309 l 644 400 l 117 646 l 83 572 l 551 354 l 83 136 l 117 62 z "},"?":{"ha":708,"x_min":0,"x_max":0,"o":"m 372 359 b 407 490 372 411 384 454 b 481 575 431 524 448 544 l 490 584 b 564 666 524 616 541 632 b 597 783 587 699 597 737 b 530 943 597 849 575 902 b 354 1004 484 984 425 1004 b 69 861 227 1004 121 946 l 135 814 b 349 922 179 881 254 922 b 510 782 444 922 510 863 b 497 728 510 764 507 747 b 465 680 488 709 483 702 b 421 633 445 660 446 658 l 397 610 b 319 507 364 574 343 549 b 282 359 295 466 282 416 z m 334 140 b 256 64 292 140 256 105 b 334 -14 256 22 292 -14 b 410 64 375 -14 410 22 b 334 140 410 105 375 140 z "},"@":{"ha":1177,"x_min":0,"x_max":0,"o":"m 408 -182 b 227 63 321 -116 258 -26 b 183 296 195 152 183 224 b 590 775 180 569 359 781 b 947 566 755 775 884 692 b 782 599 897 588 842 599 b 468 293 616 599 468 492 b 764 -16 468 85 609 -16 b 1080 392 973 -16 1080 161 b 603 859 1080 636 883 859 b 97 300 304 862 92 612 b 153 9 97 202 115 109 b 361 -244 192 -92 264 -182 z m 771 65 b 555 301 668 65 555 133 b 621 457 555 366 577 418 b 771 515 665 496 715 515 b 985 460 861 515 932 497 b 993 374 990 432 993 403 b 771 65 993 169 898 65 z "},"A":{"ha":844,"x_min":0,"x_max":0,"o":"m 243 330 l 416 831 l 597 330 z m 803 0 l 478 900 l 357 900 l 41 0 l 127 0 l 215 250 l 625 250 l 715 0 z "},"B":{"ha":947,"x_min":0,"x_max":0,"o":"m 532 819 b 614 814 570 819 580 819 b 696 771 647 808 672 795 b 737 671 724 743 737 710 b 575 490 737 559 667 490 l 250 490 l 250 819 z m 597 410 b 775 245 711 410 775 349 b 729 126 775 195 760 155 b 628 82 699 97 655 84 b 566 81 614 81 593 81 l 250 81 l 250 410 z m 538 0 b 653 5 589 0 606 0 b 711 16 677 7 696 12 b 807 77 742 26 781 47 b 864 244 845 120 864 176 b 696 456 864 350 805 422 b 827 679 783 494 827 575 b 764 831 827 738 806 789 b 647 892 731 863 693 884 b 530 900 601 899 581 900 l 167 900 l 167 0 z "},"C":{"ha":851,"x_min":0,"x_max":0,"o":"m 823 817 b 518 914 734 882 633 914 b 83 444 283 920 78 705 b 511 -14 78 193 279 -19 b 821 94 647 -14 737 26 l 768 157 b 517 66 712 107 614 66 b 172 457 330 61 169 249 b 528 832 172 678 339 832 b 778 749 610 832 713 798 l 823 817 z "},"D":{"ha":1000,"x_min":0,"x_max":0,"o":"m 457 819 b 567 814 512 819 524 820 b 618 804 588 812 605 808 b 718 743 645 793 683 773 b 829 469 789 683 829 585 b 718 165 829 336 789 231 b 641 112 693 142 665 123 b 559 87 617 99 581 91 b 468 81 536 82 490 81 b 418 81 456 81 440 81 l 250 81 l 250 819 z m 418 0 b 562 7 486 0 497 -1 b 637 24 591 11 616 17 b 778 113 677 39 732 69 b 917 469 868 200 917 323 b 777 806 917 612 870 725 b 562 894 704 862 644 885 b 418 900 497 901 486 900 l 167 900 l 167 0 z "},"E":{"ha":875,"x_min":0,"x_max":0,"o":"m 806 0 l 806 81 l 250 81 l 250 416 l 694 416 l 694 497 l 250 497 l 250 819 l 790 819 l 790 900 l 167 900 l 167 0 z "},"F":{"ha":793,"x_min":0,"x_max":0,"o":"m 636 482 l 250 482 l 250 819 l 737 819 l 737 900 l 167 900 l 167 0 l 250 0 l 250 401 l 636 401 z "},"G":{"ha":960,"x_min":0,"x_max":0,"o":"m 863 488 l 481 488 l 481 407 l 779 407 l 779 192 b 532 66 741 116 650 66 b 274 176 428 66 342 103 b 172 457 206 248 172 342 b 510 832 172 671 338 832 b 692 798 588 832 648 821 b 789 725 735 775 758 757 l 847 783 b 529 914 791 848 704 914 b 83 444 281 920 80 715 b 526 -14 83 165 285 -14 b 863 174 688 -14 800 49 z "},"H":{"ha":1057,"x_min":0,"x_max":0,"o":"m 890 0 l 890 900 l 807 900 l 807 497 l 250 497 l 250 900 l 167 900 l 167 0 l 250 0 l 250 416 l 807 416 l 807 0 z "},"I":{"ha":416,"x_min":0,"x_max":0,"o":"m 167 0 l 250 0 l 250 900 l 167 900 z "},"J":{"ha":469,"x_min":0,"x_max":0,"o":"m 220 176 b 189 11 220 108 216 66 b 53 -107 167 -37 121 -77 l 89 -176 b 279 20 190 -132 253 -67 b 302 201 295 71 302 132 l 302 900 l 220 900 z "},"K":{"ha":861,"x_min":0,"x_max":0,"o":"m 833 0 l 346 468 l 779 900 l 672 900 l 250 484 l 250 900 l 167 900 l 167 0 l 250 0 l 250 449 l 717 0 z "},"L":{"ha":734,"x_min":0,"x_max":0,"o":"m 728 0 l 728 81 l 250 81 l 250 900 l 167 900 l 167 0 z "},"M":{"ha":1319,"x_min":0,"x_max":0,"o":"m 729 0 l 1069 833 l 1069 0 l 1153 0 l 1153 903 l 1008 903 l 667 57 l 314 903 l 167 903 l 167 0 l 249 0 l 249 833 l 602 0 z "},"N":{"ha":1062,"x_min":0,"x_max":0,"o":"m 896 0 l 896 900 l 812 900 l 812 66 l 323 900 l 167 900 l 167 0 l 250 0 l 250 854 l 753 0 z "},"O":{"ha":1017,"x_min":0,"x_max":0,"o":"m 509 914 b 83 450 252 914 83 707 b 509 -16 83 193 250 -16 b 933 450 762 -19 939 196 b 509 914 939 705 760 918 z m 690 781 b 809 258 846 686 892 433 b 510 65 755 142 646 65 b 330 118 442 65 382 83 b 210 642 172 214 127 469 b 510 833 264 758 374 833 b 690 781 578 833 638 816 z "},"P":{"ha":948,"x_min":0,"x_max":0,"o":"m 460 819 b 596 811 525 819 546 819 b 711 751 645 803 680 784 b 777 590 755 708 777 654 b 713 412 777 517 755 458 b 607 355 684 382 650 363 b 494 347 564 348 545 347 l 250 347 l 250 819 z m 471 267 b 578 270 522 267 534 267 b 629 277 599 271 616 274 b 771 351 673 289 724 309 b 865 593 834 408 865 488 b 775 814 865 683 836 756 b 603 895 718 865 669 886 b 482 900 555 900 534 900 l 167 900 l 167 0 l 250 0 l 250 267 z "},"Q":{"ha":1017,"x_min":0,"x_max":0,"o":"m 904 -155 l 749 58 b 933 450 865 141 933 285 b 509 914 939 705 760 918 b 83 450 252 914 83 707 b 509 -16 83 193 250 -16 b 673 17 566 -16 621 -5 l 832 -205 z m 690 781 b 809 258 846 686 892 433 b 510 65 755 142 646 65 b 330 118 442 65 382 83 b 210 642 172 214 127 469 b 510 833 264 758 374 833 b 690 781 578 833 638 816 z "},"R":{"ha":975,"x_min":0,"x_max":0,"o":"m 493 819 b 599 812 544 819 558 818 b 704 761 637 805 671 789 b 775 604 751 721 775 669 b 701 428 775 530 751 471 b 601 382 672 403 642 387 b 493 375 561 374 543 375 l 250 375 l 250 819 z m 534 294 l 757 0 l 859 0 l 629 304 b 762 370 677 315 722 337 b 864 607 830 425 864 505 b 762 828 864 697 827 777 b 623 891 718 863 675 883 b 490 900 572 900 549 900 l 167 900 l 167 0 l 250 0 l 250 294 l 504 294 z "},"S":{"ha":863,"x_min":0,"x_max":0,"o":"m 746 857 b 467 914 668 895 575 914 b 220 851 366 914 284 893 b 123 675 155 808 123 750 b 241 494 123 588 163 534 b 437 424 296 465 351 448 b 682 229 600 380 682 326 b 443 68 682 107 549 68 b 147 170 334 68 236 102 l 97 100 b 443 -14 193 24 308 -14 b 675 54 536 -14 614 9 b 766 236 736 99 766 159 b 694 399 766 309 746 359 b 476 497 642 439 583 465 l 449 505 b 291 561 371 529 333 541 b 243 591 269 570 254 581 b 210 682 222 612 210 641 b 461 832 210 775 309 832 b 594 817 501 832 545 827 b 713 779 643 807 682 795 l 746 857 z "},"T":{"ha":728,"x_min":0,"x_max":0,"o":"m 707 900 l 21 900 l 21 819 l 322 819 l 322 0 l 406 0 l 406 819 l 707 819 z "},"U":{"ha":987,"x_min":0,"x_max":0,"o":"m 848 900 l 765 900 l 765 400 b 760 291 765 347 764 335 b 748 237 758 269 753 252 b 685 139 737 210 717 171 b 493 66 637 91 572 66 b 300 140 411 66 347 91 b 233 267 264 180 241 219 b 222 400 224 314 222 340 l 222 900 l 139 900 l 139 416 b 146 273 139 348 138 334 b 162 203 149 245 155 221 b 244 77 176 165 203 115 b 494 -14 307 16 391 -14 b 747 81 600 -14 684 18 b 835 240 794 127 823 177 b 848 415 848 301 848 338 z "},"V":{"ha":830,"x_min":0,"x_max":0,"o":"m 789 900 l 701 900 l 427 69 l 131 900 l 41 900 l 364 0 l 485 0 z "},"W":{"ha":1333,"x_min":0,"x_max":0,"o":"m 1053 0 l 1292 900 l 1208 900 l 990 52 l 739 900 l 608 900 l 379 62 l 127 900 l 41 900 l 314 0 l 439 0 l 669 840 l 925 0 z "},"X":{"ha":869,"x_min":0,"x_max":0,"o":"m 821 0 l 485 472 l 798 900 l 701 900 l 436 541 l 180 900 l 79 900 l 387 465 l 49 0 l 138 0 l 433 400 l 717 0 z "},"Y":{"ha":768,"x_min":0,"x_max":0,"o":"m 419 358 l 747 900 l 665 900 l 380 429 l 114 900 l 21 900 l 336 353 l 336 0 l 419 0 z "},"Z":{"ha":846,"x_min":0,"x_max":0,"o":"m 762 81 l 195 81 l 729 844 l 729 914 l 96 914 l 96 833 l 624 833 l 83 68 l 83 0 l 762 0 z "},"[":{"ha":486,"x_min":0,"x_max":0,"o":"m 444 -180 l 444 -103 l 233 -103 l 233 966 l 444 966 l 444 1044 l 153 1044 l 153 -180 z "},"\\":{"ha":491,"x_min":0,"x_max":0,"o":"m 111 1104 l 41 1089 l 380 -176 l 450 -158 z "},"]":{"ha":486,"x_min":0,"x_max":0,"o":"m 334 1044 l 41 1044 l 41 966 l 253 966 l 253 -103 l 41 -103 l 41 -180 l 334 -180 z "},"^":{"ha":585,"x_min":0,"x_max":0,"o":"m 501 262 l 286 496 l 69 265 l 114 224 l 286 397 l 458 224 z "},"_":{"ha":667,"x_min":0,"x_max":0,"o":"m 570 81 l 97 81 l 97 0 l 570 0 z "},"`":{"ha":471,"x_min":0,"x_max":0,"o":"m 83 971 l 351 800 l 387 856 l 126 1036 z "},"a":{"ha":794,"x_min":0,"x_max":0,"o":"m 350 66 b 199 186 258 66 199 104 b 235 264 199 220 210 237 b 391 322 277 301 319 317 b 524 326 441 328 463 326 l 566 326 l 566 302 b 350 66 566 161 476 66 z m 648 0 l 648 393 b 641 507 648 446 648 463 b 586 614 633 549 616 583 b 378 684 541 661 471 684 b 151 647 295 684 220 671 l 172 574 b 368 604 234 594 299 604 b 524 557 444 604 496 589 b 566 397 559 517 566 472 l 553 397 b 461 397 513 397 482 397 b 378 392 440 396 412 395 b 294 380 343 389 315 385 b 165 313 251 368 199 345 b 111 179 130 277 111 232 b 330 -14 111 32 230 -14 b 566 123 433 -14 517 36 l 570 0 z "},"b":{"ha":865,"x_min":0,"x_max":0,"o":"m 411 -14 b 672 89 521 -12 608 22 b 768 358 736 155 768 245 b 479 684 768 558 656 684 b 229 530 365 684 279 630 l 229 928 l 146 928 l 146 39 b 411 -14 211 6 313 -14 z m 399 68 b 229 98 332 68 275 78 l 229 332 b 461 602 229 497 318 602 b 681 353 596 602 681 506 b 399 68 681 178 572 68 z "},"c":{"ha":724,"x_min":0,"x_max":0,"o":"m 660 586 b 428 684 608 642 526 684 b 191 585 332 684 252 650 b 97 328 128 518 97 433 b 424 -14 94 147 231 -17 b 682 118 538 -14 617 32 l 619 165 b 424 69 566 100 513 69 b 254 145 356 69 299 94 b 184 335 208 196 184 259 b 255 524 184 410 208 473 b 425 602 302 576 358 602 b 606 526 494 602 559 570 l 660 586 z "},"d":{"ha":865,"x_min":0,"x_max":0,"o":"m 395 66 b 184 335 266 66 184 170 b 412 604 184 500 273 604 b 636 525 505 604 587 574 l 636 338 b 395 66 636 170 543 66 z m 720 0 l 720 928 l 636 928 l 636 623 b 432 684 576 663 508 684 b 188 586 330 684 248 651 b 97 321 127 520 97 432 b 380 -14 97 116 207 -14 b 636 140 497 -14 587 42 l 640 0 z "},"e":{"ha":817,"x_min":0,"x_max":0,"o":"m 418 602 b 639 364 557 602 636 524 l 184 364 b 418 602 193 512 280 602 z m 656 118 b 456 69 593 89 517 69 b 189 286 309 69 213 151 l 724 286 b 726 386 727 318 728 351 b 428 684 723 568 606 684 b 186 589 327 684 246 652 b 97 332 127 525 97 439 b 189 81 97 227 127 142 b 437 -12 251 19 334 -12 b 686 46 522 -14 618 9 z "},"f":{"ha":509,"x_min":0,"x_max":0,"o":"m 458 669 l 285 669 l 285 694 b 389 865 285 808 319 865 b 467 859 419 865 445 863 l 482 930 b 390 942 454 938 423 942 b 201 669 264 941 201 850 l 62 669 l 62 591 l 201 591 l 201 0 l 285 0 l 285 591 l 458 591 z "},"g":{"ha":865,"x_min":0,"x_max":0,"o":"m 395 150 b 184 376 266 150 184 237 b 412 604 184 517 273 604 b 636 525 505 604 587 574 l 636 379 b 395 150 636 240 543 150 z m 382 -236 b 652 -121 500 -236 590 -197 b 711 4 684 -80 703 -41 b 720 117 719 48 720 67 l 720 669 l 636 669 l 636 623 b 432 684 576 663 508 684 b 97 363 227 684 97 560 b 380 69 97 183 207 69 b 636 205 497 69 587 118 l 636 96 b 395 -151 636 -31 564 -151 b 235 -119 334 -151 268 -134 b 175 -92 218 -112 197 -103 l 134 -170 b 382 -236 207 -214 290 -236 z "},"h":{"ha":879,"x_min":0,"x_max":0,"o":"m 229 329 b 473 602 229 493 327 602 b 612 547 534 602 580 583 b 648 444 636 520 646 474 b 650 378 649 429 650 407 l 650 0 l 733 0 l 733 393 b 732 471 733 428 732 454 b 719 535 731 488 726 510 b 684 600 711 560 699 582 b 488 684 637 656 572 684 b 229 530 398 684 288 646 l 229 928 l 146 928 l 146 0 l 229 0 l 229 329 z "},"i":{"ha":374,"x_min":0,"x_max":0,"o":"m 187 956 b 129 899 154 956 129 930 b 187 840 129 866 155 840 b 244 899 219 840 244 867 b 187 956 244 930 219 956 z m 146 0 l 229 0 l 229 669 l 146 669 z "},"j":{"ha":394,"x_min":0,"x_max":0,"o":"m 207 956 b 149 899 174 956 149 930 b 207 840 149 866 174 840 b 264 899 239 840 264 867 b 207 956 264 930 239 956 z m 165 171 b 157 62 165 120 165 103 b 136 3 152 41 145 21 b -7 -138 105 -62 58 -109 l 33 -208 b 210 -32 114 -168 173 -109 b 248 109 234 20 245 74 b 249 180 248 125 249 149 l 249 669 l 165 669 z "},"k":{"ha":709,"x_min":0,"x_max":0,"o":"m 703 0 l 311 342 l 640 669 l 533 669 l 229 367 l 229 928 l 146 928 l 146 0 l 229 0 l 229 297 l 575 0 z "},"l":{"ha":374,"x_min":0,"x_max":0,"o":"m 229 0 l 229 928 l 146 928 l 146 0 z "},"m":{"ha":1383,"x_min":0,"x_max":0,"o":"m 229 329 b 473 602 229 493 327 602 b 612 547 534 602 580 583 b 648 444 636 520 646 474 b 650 378 649 429 650 407 l 650 0 l 733 0 l 733 329 b 978 602 733 493 831 602 b 1117 547 1038 602 1084 583 b 1153 444 1141 520 1151 474 b 1154 378 1154 429 1154 407 l 1154 0 l 1238 0 l 1238 393 b 1223 536 1238 462 1239 484 b 1187 600 1215 561 1203 582 b 991 684 1141 656 1076 684 b 725 514 898 684 781 642 b 684 600 718 547 703 576 b 488 684 637 656 572 684 b 229 530 398 684 288 646 l 224 669 l 146 669 l 146 0 l 229 0 l 229 329 z "},"n":{"ha":879,"x_min":0,"x_max":0,"o":"m 229 329 b 473 602 229 493 327 602 b 612 547 534 602 580 583 b 648 444 636 520 646 474 b 650 378 649 429 650 407 l 650 0 l 733 0 l 733 393 b 732 471 733 428 732 454 b 719 535 731 488 726 510 b 684 600 711 560 699 582 b 488 684 637 656 572 684 b 229 530 398 684 288 646 l 224 669 l 146 669 l 146 0 l 229 0 l 229 329 z "},"o":{"ha":836,"x_min":0,"x_max":0,"o":"m 419 684 b 184 587 321 684 243 652 b 97 342 126 523 97 441 b 183 83 97 234 125 148 b 416 -14 241 19 318 -14 b 650 84 513 -14 591 19 b 739 342 709 149 739 235 b 419 684 739 536 609 684 z m 416 602 b 652 342 557 602 652 496 b 419 68 652 176 556 68 b 184 342 273 68 184 177 b 416 602 184 496 272 602 z "},"p":{"ha":865,"x_min":0,"x_max":0,"o":"m 453 69 b 229 150 360 69 286 96 l 229 334 b 299 532 229 419 252 486 b 471 603 345 579 402 603 b 681 336 568 603 681 522 b 453 69 681 160 573 69 z m 446 -14 b 768 350 625 -14 768 112 b 485 684 768 574 626 684 b 229 530 376 684 279 633 l 225 669 l 146 669 l 146 -222 l 229 -222 l 229 47 b 446 -14 289 7 361 -14 z "},"q":{"ha":865,"x_min":0,"x_max":0,"o":"m 720 629 b 454 684 658 661 557 684 b 97 310 257 680 97 553 b 386 -14 97 96 239 -14 b 636 142 487 -14 585 39 l 636 -222 l 720 -222 z m 404 68 b 184 315 281 68 184 159 b 467 600 184 520 315 600 b 636 567 528 600 585 589 l 636 338 b 404 68 636 161 524 68 z "},"r":{"ha":491,"x_min":0,"x_max":0,"o":"m 229 330 b 444 586 229 506 338 586 l 450 669 b 427 671 444 670 436 671 b 228 534 342 671 271 622 l 224 669 l 146 669 l 146 0 l 229 0 l 229 330 z "},"s":{"ha":745,"x_min":0,"x_max":0,"o":"m 596 636 b 366 684 522 668 446 684 b 129 500 224 684 129 616 b 364 313 129 396 196 345 b 549 178 487 288 549 243 b 399 65 549 111 488 65 b 150 131 309 65 227 87 l 111 56 b 376 -14 192 9 281 -14 b 635 179 544 -14 635 64 b 408 386 635 292 561 353 b 215 503 265 418 215 444 b 351 606 215 567 262 606 b 567 561 425 606 497 591 l 596 636 z "},"t":{"ha":583,"x_min":0,"x_max":0,"o":"m 472 92 b 387 68 430 73 425 71 b 314 94 354 68 330 77 b 292 199 292 125 291 153 l 292 591 l 481 591 l 481 669 l 292 669 l 292 844 l 208 844 l 208 669 l 69 669 l 69 591 l 208 591 l 208 183 b 220 83 208 138 208 119 b 248 35 227 64 235 49 b 371 -14 275 3 317 -14 b 445 -4 403 -14 425 -7 b 473 7 450 -2 469 5 b 500 20 475 7 498 20 z "},"u":{"ha":863,"x_min":0,"x_max":0,"o":"m 720 0 l 720 669 l 636 669 l 636 340 b 396 68 636 177 541 68 b 277 110 345 68 304 82 b 231 208 247 140 233 182 b 229 265 230 221 229 240 l 229 669 l 146 669 l 146 254 b 164 122 146 194 146 170 b 204 56 173 98 186 76 b 379 -14 244 9 302 -14 b 636 140 466 -14 576 23 l 642 0 z "},"v":{"ha":684,"x_min":0,"x_max":0,"o":"m 650 669 l 564 669 l 335 65 l 131 668 l 35 669 l 265 0 l 396 0 z "},"w":{"ha":1078,"x_min":0,"x_max":0,"o":"m 832 0 l 1043 669 l 958 669 l 785 77 l 602 669 l 485 669 l 319 79 l 127 669 l 35 669 l 267 0 l 370 0 l 539 600 l 729 0 z "},"x":{"ha":709,"x_min":0,"x_max":0,"o":"m 353 282 l 562 0 l 675 0 l 411 347 l 660 669 l 562 669 l 364 410 l 167 669 l 64 669 l 306 345 l 35 0 l 134 0 z "},"y":{"ha":690,"x_min":0,"x_max":0,"o":"m 656 669 l 567 669 l 345 123 l 127 669 l 35 669 l 294 16 l 207 -195 l 281 -227 z "},"z":{"ha":718,"x_min":0,"x_max":0,"o":"m 628 79 l 203 79 l 614 602 l 614 669 l 121 669 l 121 589 l 504 589 l 90 68 l 90 0 l 628 0 z "},"{":{"ha":545,"x_min":0,"x_max":0,"o":"m 504 -100 b 334 60 406 -100 334 -38 b 236 427 334 246 301 369 b 334 793 301 484 334 606 b 504 962 334 895 406 962 l 504 1043 b 323 975 431 1043 370 1021 b 253 793 277 930 253 869 l 253 766 b 252 664 254 722 253 688 b 239 574 250 640 245 610 b 125 467 224 500 186 467 l 125 386 b 151 383 134 386 142 385 b 250 207 209 371 242 312 b 253 60 252 187 253 138 b 504 -180 253 -85 357 -180 z "},"|":{"ha":441,"x_min":0,"x_max":0,"o":"m 261 -192 l 261 1083 l 180 1083 l 180 -192 z "},"}":{"ha":545,"x_min":0,"x_max":0,"o":"m 293 96 b 294 163 293 127 293 150 b 297 227 294 176 295 197 b 308 294 299 256 302 279 b 421 396 323 343 357 403 l 421 476 b 395 479 412 476 404 477 b 296 656 337 491 304 550 b 293 803 294 675 293 725 b 41 1043 293 949 189 1043 l 41 962 b 212 803 140 962 212 901 b 310 436 212 616 245 494 b 212 69 245 379 212 257 b 41 -100 212 -33 142 -100 l 41 -180 b 222 -113 115 -180 176 -158 b 293 69 269 -67 293 -6 z "},"~":{"ha":795,"x_min":0,"x_max":0,"o":"m 150 275 b 261 353 170 327 207 353 b 367 315 293 353 328 340 b 511 275 411 289 459 275 b 713 390 610 275 677 320 l 642 427 b 513 357 616 380 573 357 b 427 385 484 357 454 366 b 271 435 366 418 324 435 b 83 301 172 435 109 380 l 150 275 z "}," ":{"ha":444,"x_min":0,"x_max":0,"o":""},"¡":{"ha":515,"x_min":0,"x_max":0,"o":"m 261 765 b 335 839 299 765 335 801 b 261 918 335 884 301 918 b 180 839 215 918 180 884 b 261 765 180 800 216 765 z m 220 -12 l 300 -12 l 300 640 l 220 640 z "},"¢":{"ha":730,"x_min":0,"x_max":0,"o":"m 619 165 b 424 69 566 100 513 69 b 254 145 356 69 299 94 b 184 335 208 196 184 259 b 255 524 184 410 208 473 b 425 602 302 576 358 602 b 606 526 494 602 559 570 l 660 586 b 429 684 608 642 526 684 l 429 872 l 350 872 l 350 675 b 97 328 198 642 97 508 b 167 112 97 246 120 174 b 351 -7 214 49 275 9 l 351 -192 l 431 -192 l 431 -14 b 682 118 532 -14 616 31 z "},"£":{"ha":866,"x_min":0,"x_max":0,"o":"m 783 79 l 345 79 l 345 286 l 643 286 l 643 364 l 345 364 l 345 390 b 357 505 345 446 345 465 b 386 557 363 525 373 543 b 542 604 414 589 466 604 b 737 574 610 604 675 594 l 758 647 b 532 684 690 671 614 684 b 323 614 438 684 369 661 b 269 507 294 583 276 549 b 261 393 261 463 261 446 l 261 364 l 111 364 l 111 286 l 261 286 l 261 79 l 114 79 l 114 0 l 783 0 z "},"¤":{"ha":855,"x_min":0,"x_max":0,"o":"m 739 94 l 621 211 b 654 357 643 254 654 302 b 616 496 654 410 642 457 l 745 625 l 692 675 l 568 551 b 425 600 528 584 481 600 b 285 557 369 600 322 586 l 164 676 l 111 627 l 233 503 b 193 357 207 463 193 414 b 229 205 193 296 205 245 l 117 94 l 170 41 l 275 149 b 422 100 315 116 363 100 b 575 154 484 100 535 118 l 686 41 z m 422 526 b 579 357 516 526 579 458 b 425 174 579 245 515 174 b 268 357 327 174 268 245 b 422 526 268 458 326 526 z "},"¥":{"ha":809,"x_min":0,"x_max":0,"o":"m 627 272 l 484 272 l 754 669 l 671 669 l 403 273 l 149 669 l 56 669 l 314 272 l 154 272 l 154 192 l 355 192 l 355 0 l 439 0 l 439 192 l 627 192 z "},"¦":{"ha":441,"x_min":0,"x_max":0,"o":"m 180 576 l 261 576 l 261 1111 l 180 1111 z m 180 -222 l 261 -222 l 261 364 l 180 364 z "},"§":{"ha":760,"x_min":0,"x_max":0,"o":"m 415 386 b 215 503 267 420 215 444 b 239 575 215 531 223 555 b 345 542 269 561 304 550 b 545 425 494 508 545 484 b 521 353 545 397 536 372 b 415 386 491 367 456 378 z m 383 -14 b 642 179 551 -14 642 64 b 590 309 642 231 625 274 b 631 428 617 340 631 380 b 389 615 631 522 556 583 b 204 750 266 640 204 684 b 354 863 204 817 264 863 b 603 798 444 863 527 841 l 642 872 b 376 942 559 919 471 942 b 118 749 210 942 118 863 b 170 619 118 696 135 654 b 129 500 142 587 129 548 b 371 313 129 406 203 345 b 555 178 494 288 555 243 b 406 65 555 111 495 65 b 157 131 316 65 233 87 l 118 56 b 383 -14 199 9 288 -14 z "},"¨":{"ha":554,"x_min":0,"x_max":0,"o":"m 142 956 b 83 899 109 956 83 930 b 142 840 83 866 109 840 b 199 899 174 840 199 867 b 142 956 199 930 174 956 z m 414 956 b 355 899 380 956 355 930 b 414 840 355 866 381 840 b 471 899 446 840 471 867 b 414 956 471 930 446 956 z "},"©":{"ha":1230,"x_min":0,"x_max":0,"o":"m 410 831 b 136 559 280 779 189 689 b 136 144 84 429 83 273 b 410 -128 189 14 280 -76 b 821 -128 538 -180 692 -179 b 1094 144 949 -76 1042 14 b 1094 559 1147 273 1146 429 b 821 831 1042 689 949 779 b 410 831 692 882 538 882 z m 615 803 b 1064 351 874 803 1064 612 b 615 -102 1064 91 876 -102 b 168 351 356 -102 168 92 b 615 803 165 606 359 808 z m 831 559 b 631 643 775 615 709 643 b 426 558 547 643 479 614 b 346 338 372 501 346 428 b 628 43 346 180 457 43 b 850 157 726 43 793 81 l 796 197 b 628 115 752 141 704 115 b 481 180 569 115 520 137 b 422 343 442 222 422 277 b 483 506 422 408 443 462 b 628 572 523 550 571 572 b 782 510 687 572 739 551 z "},"ª":{"ha":550,"x_min":0,"x_max":0,"o":"m 239 534 b 151 604 185 534 151 556 b 179 654 151 625 161 642 b 269 682 200 672 243 680 b 329 682 283 682 302 682 l 378 682 l 378 672 b 239 534 378 587 317 534 z m 457 475 l 457 728 b 445 833 457 779 456 795 b 416 882 439 852 429 867 b 267 937 385 919 335 937 b 96 911 205 937 148 928 l 115 846 b 253 867 163 860 209 867 b 351 838 301 867 334 857 b 376 746 368 819 376 789 l 354 746 b 192 733 278 746 248 745 b 125 704 164 727 142 717 b 69 600 87 680 69 645 b 229 465 69 499 153 465 b 382 543 296 465 347 491 l 390 475 z "},"«":{"ha":811,"x_min":0,"x_max":0,"o":"m 713 161 l 526 346 l 714 532 l 664 585 l 425 345 l 659 109 z m 371 161 l 184 346 l 372 532 l 322 585 l 83 345 l 317 109 z "},"¬":{"ha":764,"x_min":0,"x_max":0,"o":"m 667 400 l 83 400 l 83 319 l 583 319 l 583 0 l 667 0 z "},"­":{"ha":667,"x_min":0,"x_max":0,"o":"m 570 400 l 97 400 l 97 319 l 570 319 z "},"®":{"ha":1230,"x_min":0,"x_max":0,"o":"m 410 831 b 136 559 280 779 189 689 b 136 144 84 429 83 273 b 410 -128 189 14 280 -76 b 821 -128 538 -180 692 -179 b 1094 144 949 -76 1042 14 b 1094 559 1147 273 1146 429 b 821 831 1042 689 949 779 b 410 831 692 882 538 882 z m 615 803 b 1064 351 874 803 1064 612 b 615 -102 1064 91 876 -102 b 168 351 356 -102 168 92 b 615 803 165 606 359 808 z m 615 570 b 753 532 671 570 702 568 b 791 440 779 510 791 479 b 750 339 791 396 778 363 b 666 307 726 318 688 308 b 616 306 654 307 638 306 l 476 306 l 476 570 z m 865 58 l 704 248 b 794 289 737 254 767 268 b 865 443 842 325 865 376 b 802 586 865 505 844 552 b 679 632 764 616 709 629 b 614 633 663 633 642 633 l 407 633 l 407 58 l 476 58 l 476 241 l 628 241 l 786 58 z "},"¯":{"ha":511,"x_min":0,"x_max":0,"o":"m 83 872 l 428 872 l 428 928 l 83 928 z "},"°":{"ha":490,"x_min":0,"x_max":0,"o":"m 69 774 b 121 650 69 726 86 684 b 244 597 155 615 196 597 b 369 650 292 597 334 615 b 421 774 404 684 421 726 b 369 897 421 822 404 863 b 244 949 334 932 292 949 b 121 897 196 949 155 932 b 69 774 86 863 69 822 z m 318 701 b 172 701 277 661 211 661 b 172 847 132 741 132 807 b 318 847 211 888 277 888 b 318 701 359 806 358 741 z "},"±":{"ha":777,"x_min":0,"x_max":0,"o":"m 673 525 l 422 525 l 422 777 l 342 777 l 342 525 l 90 525 l 90 444 l 342 444 l 342 193 l 422 193 l 422 444 l 673 444 z m 688 66 l 104 66 l 104 -14 l 688 -14 z "},"²":{"ha":553,"x_min":0,"x_max":0,"o":"m 489 551 l 207 551 b 364 677 273 600 317 631 b 422 744 388 701 408 723 b 471 889 451 785 471 837 b 264 1090 471 1018 386 1090 b 65 987 175 1090 106 1053 l 132 947 b 260 1013 160 991 203 1013 b 392 880 339 1013 391 970 b 357 776 392 844 382 810 b 266 682 330 742 313 720 b 208 637 243 664 224 649 b 140 589 193 626 170 610 l 72 539 l 72 475 l 489 475 z "},"³":{"ha":517,"x_min":0,"x_max":0,"o":"m 236 465 b 463 646 372 467 463 531 b 340 790 463 718 422 766 b 436 926 404 815 436 861 b 256 1092 436 1026 357 1092 b 78 1035 185 1092 126 1073 l 121 975 b 243 1013 158 1000 199 1013 b 353 916 304 1013 353 977 b 196 818 353 850 296 818 l 196 750 b 378 643 317 750 378 714 b 240 545 378 580 321 545 b 89 614 178 545 127 568 l 33 559 b 236 465 80 496 148 465 z "},"´":{"ha":471,"x_min":0,"x_max":0,"o":"m 83 856 l 119 800 l 387 971 l 345 1036 z "},"µ":{"ha":863,"x_min":0,"x_max":0,"o":"m 397 -14 b 636 138 473 -14 581 22 l 642 0 l 720 0 l 720 669 l 636 669 l 636 340 b 396 68 636 177 541 68 b 229 265 260 68 229 173 l 229 669 l 146 669 l 146 -222 l 229 -222 l 229 72 b 397 -14 264 15 320 -14 z "},"¶":{"ha":1019,"x_min":0,"x_max":0,"o":"m 839 900 l 596 900 b 237 806 437 900 328 883 b 97 443 144 725 97 604 b 236 113 97 315 144 200 b 596 0 327 27 441 0 l 596 819 l 755 819 l 755 0 l 839 0 z "},"·":{"ha":390,"x_min":0,"x_max":0,"o":"m 196 418 b 118 342 154 418 118 383 b 196 264 118 300 154 264 b 272 342 237 264 272 300 b 196 418 272 383 237 418 z "},"¸":{"ha":321,"x_min":0,"x_max":0,"o":"m 175 11 b 83 -147 170 -66 140 -119 l 115 -204 b 237 0 189 -170 230 -102 z "},"¹":{"ha":411,"x_min":0,"x_max":0,"o":"m 300 1082 l 210 1082 l 33 914 l 85 861 l 220 993 l 220 475 l 300 475 z "},"º":{"ha":573,"x_min":0,"x_max":0,"o":"m 288 937 b 61 704 151 937 61 841 b 286 465 61 560 151 465 b 513 704 422 465 513 561 b 450 871 513 772 492 827 b 288 937 408 916 354 937 z m 286 861 b 431 704 372 861 431 799 b 288 542 431 604 372 542 b 143 704 199 542 143 606 b 286 861 143 799 199 861 z "},"»":{"ha":811,"x_min":0,"x_max":0,"o":"m 386 346 l 153 582 l 98 529 l 285 345 l 97 158 l 147 106 z m 728 346 l 494 582 l 440 529 l 627 345 l 439 158 l 489 106 z "},"¼":{"ha":1389,"x_min":0,"x_max":0,"o":"m 329 -64 l 983 1071 l 921 1103 l 267 -29 z m 357 1082 l 267 1082 l 90 914 l 142 861 l 277 993 l 277 475 l 357 475 z m 867 210 l 1064 532 l 1064 210 z m 1217 210 l 1143 210 l 1143 607 l 1022 607 l 765 199 l 765 135 l 1064 135 l 1064 0 l 1143 0 l 1143 135 l 1217 135 z "},"½":{"ha":1389,"x_min":0,"x_max":0,"o":"m 329 -64 l 983 1071 l 921 1103 l 267 -29 z m 357 1082 l 267 1082 l 90 914 l 142 861 l 277 993 l 277 475 l 357 475 z m 1234 77 l 951 77 b 1139 235 1038 138 1087 177 b 1215 414 1191 291 1215 349 b 1008 615 1215 543 1131 615 b 810 513 919 615 850 578 l 876 472 b 1004 538 905 516 947 538 b 1136 406 1084 538 1135 495 b 1110 315 1136 374 1124 341 b 1039 231 1095 288 1063 254 b 937 150 1014 210 964 172 l 817 64 l 817 0 l 1234 0 z "},"¾":{"ha":1389,"x_min":0,"x_max":0,"o":"m 385 -64 l 1039 1071 l 977 1103 l 322 -29 z m 279 465 b 505 646 415 467 505 531 b 383 790 505 718 465 766 b 479 926 445 814 479 862 b 298 1092 479 1026 399 1092 b 121 1035 228 1092 169 1073 l 164 975 b 286 1013 201 1000 242 1013 b 396 916 348 1013 396 977 b 239 818 396 850 339 818 l 239 750 b 421 643 360 750 421 714 b 283 545 421 580 365 545 b 132 614 222 545 171 568 l 77 559 b 279 465 123 496 191 465 z m 922 210 l 1120 532 l 1120 210 z m 1272 210 l 1198 210 l 1198 607 l 1078 607 l 821 199 l 821 135 l 1120 135 l 1120 0 l 1198 0 l 1198 135 l 1272 135 z "},"¿":{"ha":708,"x_min":0,"x_max":0,"o":"m 375 851 b 453 928 418 851 453 886 b 375 1006 453 970 418 1006 b 298 928 334 1006 298 970 b 375 851 298 886 334 851 z m 336 632 b 302 503 336 581 325 537 b 228 416 278 466 262 448 l 218 408 b 145 326 184 375 168 359 b 111 208 121 293 111 254 b 354 -12 111 77 211 -12 b 639 131 481 -12 587 46 l 574 178 b 359 69 530 112 454 69 b 199 210 264 69 199 128 b 212 264 199 228 201 245 b 244 311 222 281 224 291 b 288 358 262 332 264 334 l 311 382 b 390 484 345 417 366 443 b 427 632 414 526 427 576 z "},"À":{"ha":844,"x_min":0,"x_max":0,"o":"m 239 1183 l 507 1013 l 543 1068 l 282 1249 z m 243 330 l 416 831 l 597 330 z m 803 0 l 478 900 l 357 900 l 41 0 l 127 0 l 215 250 l 625 250 l 715 0 z "},"Á":{"ha":844,"x_min":0,"x_max":0,"o":"m 301 1068 l 338 1013 l 606 1183 l 562 1249 z m 243 330 l 416 831 l 597 330 z m 803 0 l 478 900 l 357 900 l 41 0 l 127 0 l 215 250 l 625 250 l 715 0 z "},"Â":{"ha":844,"x_min":0,"x_max":0,"o":"m 619 1059 l 422 1197 l 225 1059 l 258 1013 l 422 1116 l 586 1013 z m 243 330 l 416 831 l 597 330 z m 803 0 l 478 900 l 357 900 l 41 0 l 127 0 l 215 250 l 625 250 l 715 0 z "},"Ã":{"ha":844,"x_min":0,"x_max":0,"o":"m 262 1047 b 326 1126 274 1100 295 1126 b 401 1089 348 1126 373 1114 b 504 1048 433 1062 467 1048 b 643 1168 571 1048 618 1095 l 587 1193 b 505 1117 566 1146 544 1117 b 443 1145 486 1117 465 1126 b 334 1194 402 1177 372 1194 b 203 1065 266 1194 221 1141 z m 243 330 l 416 831 l 597 330 z m 803 0 l 478 900 l 357 900 l 41 0 l 127 0 l 215 250 l 625 250 l 715 0 z "},"Ä":{"ha":844,"x_min":0,"x_max":0,"o":"m 288 1168 b 229 1111 254 1168 229 1143 b 288 1053 229 1078 255 1053 b 345 1111 319 1053 345 1079 b 288 1168 345 1143 319 1168 z m 559 1168 b 501 1111 526 1168 501 1143 b 559 1053 501 1078 527 1053 b 616 1111 591 1053 616 1079 b 559 1168 616 1143 591 1168 z m 243 330 l 416 831 l 597 330 z m 803 0 l 478 900 l 357 900 l 41 0 l 127 0 l 215 250 l 625 250 l 715 0 z "},"Å":{"ha":844,"x_min":0,"x_max":0,"o":"m 424 1008 b 522 1050 461 1008 494 1023 b 564 1150 550 1078 564 1112 b 424 1291 564 1226 498 1291 b 281 1150 346 1291 281 1227 b 424 1008 281 1074 346 1008 z m 424 1067 b 339 1150 378 1067 339 1105 b 424 1232 339 1194 378 1232 b 505 1150 468 1232 505 1194 b 424 1067 505 1106 467 1067 z m 243 330 l 416 831 l 597 330 z m 803 0 l 478 900 l 357 900 l 41 0 l 127 0 l 215 250 l 625 250 l 715 0 z "},"Æ":{"ha":1274,"x_min":0,"x_max":0,"o":"m 313 330 l 551 835 l 551 330 z m 1190 0 l 1190 81 l 635 81 l 635 416 l 1079 416 l 1079 497 l 635 497 l 635 819 l 1175 819 l 1175 900 l 497 900 l 69 0 l 157 0 l 275 250 l 551 250 l 551 0 z "},"Ç":{"ha":851,"x_min":0,"x_max":0,"o":"m 768 157 b 517 66 712 107 614 66 b 172 457 330 61 169 249 b 528 832 172 678 339 832 b 778 749 610 832 713 798 l 823 817 b 518 914 734 882 633 914 b 83 444 283 920 78 705 b 478 -12 83 201 256 6 b 389 -147 469 -78 439 -123 l 421 -204 b 542 -12 491 -172 531 -108 b 821 94 648 -7 741 28 z "},"È":{"ha":875,"x_min":0,"x_max":0,"o":"m 304 1183 l 572 1013 l 608 1068 l 347 1249 z m 806 0 l 806 81 l 250 81 l 250 416 l 694 416 l 694 497 l 250 497 l 250 819 l 790 819 l 790 900 l 167 900 l 167 0 z "},"É":{"ha":875,"x_min":0,"x_max":0,"o":"m 367 1068 l 403 1013 l 671 1183 l 628 1249 z m 806 0 l 806 81 l 250 81 l 250 416 l 694 416 l 694 497 l 250 497 l 250 819 l 790 819 l 790 900 l 167 900 l 167 0 z "},"Ê":{"ha":875,"x_min":0,"x_max":0,"o":"m 685 1059 l 488 1197 l 290 1059 l 323 1013 l 488 1116 l 652 1013 z m 806 0 l 806 81 l 250 81 l 250 416 l 694 416 l 694 497 l 250 497 l 250 819 l 790 819 l 790 900 l 167 900 l 167 0 z "},"Ë":{"ha":875,"x_min":0,"x_max":0,"o":"m 353 1168 b 294 1111 319 1168 294 1143 b 353 1053 294 1078 320 1053 b 410 1111 385 1053 410 1079 b 353 1168 410 1143 385 1168 z m 625 1168 b 567 1111 592 1168 567 1143 b 625 1053 567 1078 593 1053 b 682 1111 657 1053 682 1079 b 625 1168 682 1143 657 1168 z m 806 0 l 806 81 l 250 81 l 250 416 l 694 416 l 694 497 l 250 497 l 250 819 l 790 819 l 790 900 l 167 900 l 167 0 z "},"Ì":{"ha":416,"x_min":0,"x_max":0,"o":"m 26 1183 l 294 1013 l 330 1068 l 69 1249 z m 167 0 l 250 0 l 250 900 l 167 900 z "},"Í":{"ha":416,"x_min":0,"x_max":0,"o":"m 89 1068 l 125 1013 l 393 1183 l 350 1249 z m 167 0 l 250 0 l 250 900 l 167 900 z "},"Î":{"ha":416,"x_min":0,"x_max":0,"o":"m 407 1059 l 210 1197 l 12 1059 l 46 1013 l 210 1116 l 374 1013 z m 167 0 l 250 0 l 250 900 l 167 900 z "},"Ï":{"ha":416,"x_min":0,"x_max":0,"o":"m 75 1168 b 17 1111 42 1168 17 1143 b 75 1053 17 1078 43 1053 b 132 1111 107 1053 132 1079 b 75 1168 132 1143 107 1168 z m 347 1168 b 289 1111 314 1168 289 1143 b 347 1053 289 1078 315 1053 b 404 1111 379 1053 404 1079 b 347 1168 404 1143 379 1168 z m 167 0 l 250 0 l 250 900 l 167 900 z "},"Ð":{"ha":1027,"x_min":0,"x_max":0,"o":"m 517 497 l 250 497 l 250 819 l 457 819 b 567 814 512 819 524 820 b 618 804 588 812 605 808 b 718 743 645 793 683 773 b 829 469 789 683 829 585 b 718 165 829 336 789 231 b 641 112 693 142 665 123 b 559 87 617 99 581 91 b 468 81 536 82 490 81 b 418 81 456 81 440 81 l 250 81 l 250 416 l 517 416 z m 418 0 b 562 7 486 0 497 -1 b 637 24 591 11 616 17 b 778 113 677 39 732 69 b 917 469 868 200 917 323 b 777 806 917 612 870 725 b 562 894 704 862 644 885 b 418 900 497 901 486 900 l 167 900 l 167 497 l 28 497 l 28 416 l 167 416 l 167 0 z "},"Ñ":{"ha":1062,"x_min":0,"x_max":0,"o":"m 378 1047 b 441 1126 389 1100 410 1126 b 517 1089 463 1126 488 1114 b 619 1048 549 1062 583 1048 b 758 1168 686 1048 733 1095 l 703 1193 b 621 1117 682 1146 659 1117 b 558 1145 601 1117 580 1126 b 449 1194 517 1177 488 1194 b 318 1065 381 1194 336 1141 z m 896 0 l 896 900 l 812 900 l 812 66 l 323 900 l 167 900 l 167 0 l 250 0 l 250 854 l 753 0 z "},"Ò":{"ha":1017,"x_min":0,"x_max":0,"o":"m 325 1183 l 593 1013 l 629 1068 l 368 1249 z m 509 914 b 83 450 252 914 83 707 b 509 -16 83 193 250 -16 b 933 450 762 -19 939 196 b 509 914 939 705 760 918 z m 690 781 b 809 258 846 686 892 433 b 510 65 755 142 646 65 b 330 118 442 65 382 83 b 210 642 172 214 127 469 b 510 833 264 758 374 833 b 690 781 578 833 638 816 z "},"Ó":{"ha":1017,"x_min":0,"x_max":0,"o":"m 387 1068 l 424 1013 l 692 1183 l 648 1249 z m 509 914 b 83 450 252 914 83 707 b 509 -16 83 193 250 -16 b 933 450 762 -19 939 196 b 509 914 939 705 760 918 z m 690 781 b 809 258 846 686 892 433 b 510 65 755 142 646 65 b 330 118 442 65 382 83 b 210 642 172 214 127 469 b 510 833 264 758 374 833 b 690 781 578 833 638 816 z "},"Ô":{"ha":1017,"x_min":0,"x_max":0,"o":"m 705 1059 l 509 1197 l 311 1059 l 345 1013 l 509 1116 l 672 1013 z m 509 914 b 83 450 252 914 83 707 b 509 -16 83 193 250 -16 b 933 450 762 -19 939 196 b 509 914 939 705 760 918 z m 690 781 b 809 258 846 686 892 433 b 510 65 755 142 646 65 b 330 118 442 65 382 83 b 210 642 172 214 127 469 b 510 833 264 758 374 833 b 690 781 578 833 638 816 z "},"Õ":{"ha":1017,"x_min":0,"x_max":0,"o":"m 349 1047 b 412 1126 360 1100 381 1126 b 488 1089 434 1126 459 1114 b 590 1048 519 1062 553 1048 b 729 1168 657 1048 704 1095 l 673 1193 b 591 1117 652 1146 630 1117 b 529 1145 572 1117 551 1126 b 419 1194 488 1178 451 1194 b 289 1065 351 1194 307 1143 z m 509 914 b 83 450 252 914 83 707 b 509 -16 83 193 250 -16 b 933 450 762 -19 939 196 b 509 914 939 705 760 918 z m 690 781 b 809 258 846 686 892 433 b 510 65 755 142 646 65 b 330 118 442 65 382 83 b 210 642 172 214 127 469 b 510 833 264 758 374 833 b 690 781 578 833 638 816 z "},"Ö":{"ha":1017,"x_min":0,"x_max":0,"o":"m 374 1168 b 315 1111 340 1168 315 1143 b 374 1053 315 1078 341 1053 b 431 1111 406 1053 431 1079 b 374 1168 431 1143 406 1168 z m 646 1168 b 587 1111 612 1168 587 1143 b 646 1053 587 1078 613 1053 b 703 1111 677 1053 703 1079 b 646 1168 703 1143 677 1168 z m 509 914 b 83 450 252 914 83 707 b 509 -16 83 193 250 -16 b 933 450 762 -19 939 196 b 509 914 939 705 760 918 z m 690 781 b 809 258 846 686 892 433 b 510 65 755 142 646 65 b 330 118 442 65 382 83 b 210 642 172 214 127 469 b 510 833 264 758 374 833 b 690 781 578 833 638 816 z "},"×":{"ha":650,"x_min":0,"x_max":0,"o":"m 559 182 l 382 359 l 559 538 l 503 595 l 325 416 l 147 595 l 90 538 l 268 359 l 90 182 l 147 125 l 325 302 l 503 125 z "},"Ø":{"ha":1044,"x_min":0,"x_max":0,"o":"m 690 781 b 809 258 846 686 892 433 b 510 65 755 142 646 65 b 330 118 442 65 382 83 b 210 642 172 214 127 469 b 510 833 264 758 374 833 b 690 781 578 833 638 816 z m 509 -16 b 933 450 762 -19 939 196 b 762 829 933 607 871 746 l 857 993 l 794 1032 l 700 869 b 509 914 640 899 576 914 b 83 450 252 914 83 707 b 243 78 83 296 140 164 l 151 -81 l 216 -118 l 304 35 b 509 -16 368 1 435 -16 z "},"Ù":{"ha":987,"x_min":0,"x_max":0,"o":"m 311 1183 l 579 1013 l 615 1068 l 354 1249 z m 848 900 l 765 900 l 765 400 b 760 291 765 347 764 335 b 748 237 758 269 753 252 b 685 139 737 210 717 171 b 493 66 637 91 572 66 b 300 140 411 66 347 91 b 233 267 264 180 241 219 b 222 400 224 314 222 340 l 222 900 l 139 900 l 139 416 b 146 273 139 348 138 334 b 162 203 149 245 155 221 b 244 77 176 165 203 115 b 494 -14 307 16 391 -14 b 747 81 600 -14 684 18 b 835 240 794 127 823 177 b 848 415 848 301 848 338 z "},"Ú":{"ha":987,"x_min":0,"x_max":0,"o":"m 374 1068 l 410 1013 l 677 1183 l 635 1249 z m 848 900 l 765 900 l 765 400 b 760 291 765 347 764 335 b 748 237 758 269 753 252 b 685 139 737 210 717 171 b 493 66 637 91 572 66 b 300 140 411 66 347 91 b 233 267 264 180 241 219 b 222 400 224 314 222 340 l 222 900 l 139 900 l 139 416 b 146 273 139 348 138 334 b 162 203 149 245 155 221 b 244 77 176 165 203 115 b 494 -14 307 16 391 -14 b 747 81 600 -14 684 18 b 835 240 794 127 823 177 b 848 415 848 301 848 338 z "},"Û":{"ha":987,"x_min":0,"x_max":0,"o":"m 692 1059 l 494 1197 l 297 1059 l 330 1013 l 494 1116 l 659 1013 z m 848 900 l 765 900 l 765 400 b 760 291 765 347 764 335 b 748 237 758 269 753 252 b 685 139 737 210 717 171 b 493 66 637 91 572 66 b 300 140 411 66 347 91 b 233 267 264 180 241 219 b 222 400 224 314 222 340 l 222 900 l 139 900 l 139 416 b 146 273 139 348 138 334 b 162 203 149 245 155 221 b 244 77 176 165 203 115 b 494 -14 307 16 391 -14 b 747 81 600 -14 684 18 b 835 240 794 127 823 177 b 848 415 848 301 848 338 z "},"Ü":{"ha":987,"x_min":0,"x_max":0,"o":"m 359 1168 b 301 1111 326 1168 301 1143 b 359 1053 301 1078 327 1053 b 416 1111 391 1053 416 1079 b 359 1168 416 1143 391 1168 z m 632 1168 b 574 1111 599 1168 574 1143 b 632 1053 574 1078 600 1053 b 689 1111 664 1053 689 1079 b 632 1168 689 1143 664 1168 z m 848 900 l 765 900 l 765 400 b 760 291 765 347 764 335 b 748 237 758 269 753 252 b 685 139 737 210 717 171 b 493 66 637 91 572 66 b 300 140 411 66 347 91 b 233 267 264 180 241 219 b 222 400 224 314 222 340 l 222 900 l 139 900 l 139 416 b 146 273 139 348 138 334 b 162 203 149 245 155 221 b 244 77 176 165 203 115 b 494 -14 307 16 391 -14 b 747 81 600 -14 684 18 b 835 240 794 127 823 177 b 848 415 848 301 848 338 z "},"Ý":{"ha":768,"x_min":0,"x_max":0,"o":"m 264 1068 l 300 1013 l 568 1183 l 525 1249 z m 419 358 l 747 900 l 665 900 l 380 429 l 114 900 l 21 900 l 336 353 l 336 0 l 419 0 z "},"Þ":{"ha":1027,"x_min":0,"x_max":0,"o":"m 596 694 b 768 640 667 694 724 676 b 843 457 818 600 843 539 b 768 258 843 368 818 301 b 596 205 726 223 668 205 l 264 205 l 264 694 z m 543 125 b 662 132 594 125 612 124 b 725 147 686 135 707 140 b 844 225 760 160 807 187 b 930 457 902 286 930 363 b 833 694 930 561 898 640 b 684 766 787 732 739 755 b 543 775 629 774 604 775 l 264 775 l 264 900 l 180 900 l 180 0 l 264 0 l 264 125 z "},"ß":{"ha":960,"x_min":0,"x_max":0,"o":"m 604 -14 b 863 232 761 -14 863 76 b 745 439 863 316 823 385 b 628 507 696 473 621 498 b 684 579 628 515 656 545 b 737 743 720 629 737 684 b 503 942 737 863 640 942 b 239 676 317 942 239 820 l 239 669 l 77 669 l 77 591 l 239 591 l 239 0 l 322 0 l 322 684 b 492 861 322 794 399 861 b 648 732 591 861 648 811 b 599 597 648 684 632 640 b 574 566 597 595 576 570 b 565 553 572 564 570 559 b 549 501 553 536 549 522 b 597 433 543 471 576 446 b 661 400 608 425 650 408 b 774 228 718 371 774 333 b 621 64 774 128 716 64 b 432 107 543 64 499 77 l 404 35 b 604 -14 458 5 536 -14 z "},"à":{"ha":794,"x_min":0,"x_max":0,"o":"m 191 971 l 458 800 l 494 856 l 233 1036 z m 350 66 b 199 186 258 66 199 104 b 235 264 199 220 210 237 b 391 322 277 301 319 317 b 524 326 441 328 463 326 l 566 326 l 566 302 b 350 66 566 161 476 66 z m 648 0 l 648 393 b 641 507 648 446 648 463 b 586 614 633 549 616 583 b 378 684 541 661 471 684 b 151 647 295 684 220 671 l 172 574 b 368 604 234 594 299 604 b 524 557 444 604 496 589 b 566 397 559 517 566 472 l 553 397 b 461 397 513 397 482 397 b 378 392 440 396 412 395 b 294 380 343 389 315 385 b 165 313 251 368 199 345 b 111 179 130 277 111 232 b 330 -14 111 32 230 -14 b 566 123 433 -14 517 36 l 570 0 z "},"á":{"ha":794,"x_min":0,"x_max":0,"o":"m 253 856 l 289 800 l 557 971 l 514 1036 z m 350 66 b 199 186 258 66 199 104 b 235 264 199 220 210 237 b 391 322 277 301 319 317 b 524 326 441 328 463 326 l 566 326 l 566 302 b 350 66 566 161 476 66 z m 648 0 l 648 393 b 641 507 648 446 648 463 b 586 614 633 549 616 583 b 378 684 541 661 471 684 b 151 647 295 684 220 671 l 172 574 b 368 604 234 594 299 604 b 524 557 444 604 496 589 b 566 397 559 517 566 472 l 553 397 b 461 397 513 397 482 397 b 378 392 440 396 412 395 b 294 380 343 389 315 385 b 165 313 251 368 199 345 b 111 179 130 277 111 232 b 330 -14 111 32 230 -14 b 566 123 433 -14 517 36 l 570 0 z "},"â":{"ha":794,"x_min":0,"x_max":0,"o":"m 571 846 l 374 985 l 176 846 l 210 800 l 374 903 l 538 800 z m 350 66 b 199 186 258 66 199 104 b 235 264 199 220 210 237 b 391 322 277 301 319 317 b 524 326 441 328 463 326 l 566 326 l 566 302 b 350 66 566 161 476 66 z m 648 0 l 648 393 b 641 507 648 446 648 463 b 586 614 633 549 616 583 b 378 684 541 661 471 684 b 151 647 295 684 220 671 l 172 574 b 368 604 234 594 299 604 b 524 557 444 604 496 589 b 566 397 559 517 566 472 l 553 397 b 461 397 513 397 482 397 b 378 392 440 396 412 395 b 294 380 343 389 315 385 b 165 313 251 368 199 345 b 111 179 130 277 111 232 b 330 -14 111 32 230 -14 b 566 123 433 -14 517 36 l 570 0 z "},"ã":{"ha":794,"x_min":0,"x_max":0,"o":"m 214 835 b 278 914 225 888 246 914 b 353 876 311 914 329 897 b 456 836 384 850 418 836 b 595 956 523 836 570 883 l 539 981 b 457 904 518 934 496 904 b 395 932 437 904 416 913 b 285 982 354 964 323 982 b 154 852 217 982 172 929 z m 350 66 b 199 186 258 66 199 104 b 235 264 199 220 210 237 b 391 322 277 301 319 317 b 524 326 441 328 463 326 l 566 326 l 566 302 b 350 66 566 161 476 66 z m 648 0 l 648 393 b 641 507 648 446 648 463 b 586 614 633 549 616 583 b 378 684 541 661 471 684 b 151 647 295 684 220 671 l 172 574 b 368 604 234 594 299 604 b 524 557 444 604 496 589 b 566 397 559 517 566 472 l 553 397 b 461 397 513 397 482 397 b 378 392 440 396 412 395 b 294 380 343 389 315 385 b 165 313 251 368 199 345 b 111 179 130 277 111 232 b 330 -14 111 32 230 -14 b 566 123 433 -14 517 36 l 570 0 z "},"ä":{"ha":794,"x_min":0,"x_max":0,"o":"m 239 956 b 180 899 205 956 180 930 b 239 840 180 866 206 840 b 296 899 271 840 296 867 b 239 956 296 930 271 956 z m 511 956 b 453 899 478 956 453 930 b 511 840 453 866 479 840 b 568 899 543 840 568 867 b 511 956 568 930 543 956 z m 350 66 b 199 186 258 66 199 104 b 235 264 199 220 210 237 b 391 322 277 301 319 317 b 524 326 441 328 463 326 l 566 326 l 566 302 b 350 66 566 161 476 66 z m 648 0 l 648 393 b 641 507 648 446 648 463 b 586 614 633 549 616 583 b 378 684 541 661 471 684 b 151 647 295 684 220 671 l 172 574 b 368 604 234 594 299 604 b 524 557 444 604 496 589 b 566 397 559 517 566 472 l 553 397 b 461 397 513 397 482 397 b 378 392 440 396 412 395 b 294 380 343 389 315 385 b 165 313 251 368 199 345 b 111 179 130 277 111 232 b 330 -14 111 32 230 -14 b 566 123 433 -14 517 36 l 570 0 z "},"å":{"ha":794,"x_min":0,"x_max":0,"o":"m 375 796 b 473 838 412 796 446 810 b 515 937 501 866 515 899 b 375 1078 515 1013 451 1078 b 232 937 297 1078 232 1015 b 375 796 232 861 297 796 z m 375 854 b 290 937 329 854 290 892 b 375 1019 290 981 329 1019 b 457 937 418 1019 457 981 b 375 854 457 893 418 854 z m 350 66 b 199 186 258 66 199 104 b 235 264 199 220 210 237 b 391 322 277 301 319 317 b 524 326 441 328 463 326 l 566 326 l 566 302 b 350 66 566 161 476 66 z m 648 0 l 648 393 b 641 507 648 446 648 463 b 586 614 633 549 616 583 b 378 684 541 661 471 684 b 151 647 295 684 220 671 l 172 574 b 368 604 234 594 299 604 b 524 557 444 604 496 589 b 566 397 559 517 566 472 l 553 397 b 461 397 513 397 482 397 b 378 392 440 396 412 395 b 294 380 343 389 315 385 b 165 313 251 368 199 345 b 111 179 130 277 111 232 b 330 -14 111 32 230 -14 b 566 123 433 -14 517 36 l 570 0 z "},"æ":{"ha":1270,"x_min":0,"x_max":0,"o":"m 873 602 b 1093 383 1006 602 1085 529 l 642 383 b 873 602 656 520 742 602 z m 336 66 b 184 174 247 66 184 102 b 257 278 184 222 209 257 b 449 306 298 296 363 306 l 551 306 l 551 302 b 336 66 551 161 463 66 z m 893 -12 b 1139 46 977 -14 1071 9 l 1111 118 b 911 69 1048 89 972 69 b 642 306 758 69 658 159 l 1179 306 b 1182 386 1183 332 1183 358 b 884 684 1179 568 1062 684 b 618 542 764 684 671 633 b 572 614 607 570 592 594 b 364 684 527 661 458 684 b 138 647 281 684 206 671 l 158 574 b 354 604 220 594 285 604 b 510 557 430 604 482 589 b 550 453 536 528 548 481 b 551 390 551 439 551 418 l 551 383 l 539 383 b 448 382 500 383 470 383 b 366 378 426 382 399 380 b 283 365 332 374 304 370 b 151 298 239 353 186 331 b 97 165 114 264 97 226 b 317 -14 97 32 217 -14 b 597 167 446 -14 552 54 l 599 167 b 893 -12 648 52 752 -12 z "},"ç":{"ha":724,"x_min":0,"x_max":0,"o":"m 619 165 b 424 69 566 100 513 69 b 254 145 356 69 299 94 b 184 335 208 196 184 259 b 255 524 184 410 208 473 b 425 602 302 576 358 602 b 606 526 494 602 559 570 l 660 586 b 428 684 608 642 526 684 b 191 585 332 684 252 650 b 97 328 128 518 97 433 b 178 98 97 239 124 163 b 387 -12 231 34 301 -3 b 298 -147 378 -78 348 -123 l 330 -204 b 452 -12 400 -171 441 -107 b 682 118 545 -6 622 37 z "},"è":{"ha":817,"x_min":0,"x_max":0,"o":"m 240 971 l 509 800 l 545 856 l 283 1036 z m 418 602 b 639 364 557 602 636 524 l 184 364 b 418 602 193 512 280 602 z m 656 118 b 456 69 593 89 517 69 b 189 286 309 69 213 151 l 724 286 b 726 386 727 318 728 351 b 428 684 723 568 606 684 b 186 589 327 684 246 652 b 97 332 127 525 97 439 b 189 81 97 227 127 142 b 437 -12 251 19 334 -12 b 686 46 522 -14 618 9 z "},"é":{"ha":817,"x_min":0,"x_max":0,"o":"m 302 856 l 339 800 l 607 971 l 564 1036 z m 418 602 b 639 364 557 602 636 524 l 184 364 b 418 602 193 512 280 602 z m 656 118 b 456 69 593 89 517 69 b 189 286 309 69 213 151 l 724 286 b 726 386 727 318 728 351 b 428 684 723 568 606 684 b 186 589 327 684 246 652 b 97 332 127 525 97 439 b 189 81 97 227 127 142 b 437 -12 251 19 334 -12 b 686 46 522 -14 618 9 z "},"ê":{"ha":817,"x_min":0,"x_max":0,"o":"m 621 846 l 424 985 l 227 846 l 260 800 l 424 903 l 587 800 z m 418 602 b 639 364 557 602 636 524 l 184 364 b 418 602 193 512 280 602 z m 656 118 b 456 69 593 89 517 69 b 189 286 309 69 213 151 l 724 286 b 726 386 727 318 728 351 b 428 684 723 568 606 684 b 186 589 327 684 246 652 b 97 332 127 525 97 439 b 189 81 97 227 127 142 b 437 -12 251 19 334 -12 b 686 46 522 -14 618 9 z "},"ë":{"ha":817,"x_min":0,"x_max":0,"o":"m 289 956 b 231 899 256 956 231 930 b 289 840 231 866 256 840 b 346 899 321 840 346 867 b 289 956 346 930 321 956 z m 561 956 b 503 899 528 956 503 930 b 561 840 503 866 528 840 b 618 899 593 840 618 867 b 561 956 618 930 593 956 z m 418 602 b 639 364 557 602 636 524 l 184 364 b 418 602 193 512 280 602 z m 656 118 b 456 69 593 89 517 69 b 189 286 309 69 213 151 l 724 286 b 726 386 727 318 728 351 b 428 684 723 568 606 684 b 186 589 327 684 246 652 b 97 332 127 525 97 439 b 189 81 97 227 127 142 b 437 -12 251 19 334 -12 b 686 46 522 -14 618 9 z "},"ì":{"ha":389,"x_min":0,"x_max":0,"o":"m 12 971 l 281 800 l 317 856 l 56 1036 z m 153 0 l 236 0 l 236 669 l 153 669 z "},"í":{"ha":389,"x_min":0,"x_max":0,"o":"m 75 856 l 111 800 l 379 971 l 336 1036 z m 153 0 l 236 0 l 236 669 l 153 669 z "},"î":{"ha":389,"x_min":0,"x_max":0,"o":"m 393 846 l 196 985 l -1 846 l 32 800 l 196 903 l 359 800 z m 153 0 l 236 0 l 236 669 l 153 669 z "},"ï":{"ha":389,"x_min":0,"x_max":0,"o":"m 61 956 b 3 899 28 956 3 930 b 61 840 3 866 28 840 b 118 899 93 840 118 867 b 61 956 118 930 93 956 z m 334 956 b 275 899 300 956 275 930 b 334 840 275 866 301 840 b 390 899 366 840 390 866 b 334 956 390 930 366 956 z m 153 0 l 236 0 l 236 669 l 153 669 z "},"ð":{"ha":802,"x_min":0,"x_max":0,"o":"m 404 -14 b 705 347 585 -14 705 117 b 568 793 705 519 660 668 l 656 880 l 600 936 l 517 852 b 453 920 492 882 470 904 l 395 861 b 461 798 421 838 443 817 l 370 705 l 425 650 l 511 736 b 616 441 571 653 606 555 b 378 551 568 512 481 551 b 176 479 296 551 229 527 b 97 288 123 431 97 367 b 180 71 97 199 125 127 b 404 -14 235 14 309 -14 z m 612 288 b 392 66 612 157 522 66 b 184 278 270 66 184 155 b 387 469 184 392 271 469 b 612 288 514 469 612 402 z "},"ñ":{"ha":879,"x_min":0,"x_max":0,"o":"m 319 835 b 383 914 331 888 352 914 b 458 876 415 914 435 897 b 561 836 490 850 524 836 b 700 956 628 836 675 883 l 644 981 b 562 904 623 934 601 904 b 500 932 543 904 522 913 b 390 982 459 964 429 982 b 260 852 322 982 278 929 z m 229 329 b 473 602 229 493 327 602 b 612 547 534 602 580 583 b 648 444 636 520 646 474 b 650 378 649 429 650 407 l 650 0 l 733 0 l 733 393 b 732 471 733 428 732 454 b 719 535 731 488 726 510 b 684 600 711 560 699 582 b 488 684 637 656 572 684 b 229 530 398 684 288 646 l 224 669 l 146 669 l 146 0 l 229 0 z "},"ò":{"ha":836,"x_min":0,"x_max":0,"o":"m 236 971 l 504 800 l 541 856 l 279 1036 z m 419 684 b 184 587 321 684 243 652 b 97 342 126 523 97 441 b 183 83 97 234 125 148 b 416 -14 241 19 318 -14 b 650 84 513 -14 591 19 b 739 342 709 149 739 235 b 419 684 739 536 609 684 z m 416 602 b 652 342 557 602 652 496 b 419 68 652 176 556 68 b 184 342 273 68 184 177 b 416 602 184 496 272 602 z "},"ó":{"ha":836,"x_min":0,"x_max":0,"o":"m 298 856 l 335 800 l 603 971 l 559 1036 z m 419 684 b 184 587 321 684 243 652 b 97 342 126 523 97 441 b 183 83 97 234 125 148 b 416 -14 241 19 318 -14 b 650 84 513 -14 591 19 b 739 342 709 149 739 235 b 419 684 739 536 609 684 z m 416 602 b 652 342 557 602 652 496 b 419 68 652 176 556 68 b 184 342 273 68 184 177 b 416 602 184 496 272 602 z "},"ô":{"ha":836,"x_min":0,"x_max":0,"o":"m 616 846 l 419 985 l 222 846 l 256 800 l 419 903 l 583 800 z m 419 684 b 184 587 321 684 243 652 b 97 342 126 523 97 441 b 183 83 97 234 125 148 b 416 -14 241 19 318 -14 b 650 84 513 -14 591 19 b 739 342 709 149 739 235 b 419 684 739 536 609 684 z m 416 602 b 652 342 557 602 652 496 b 419 68 652 176 556 68 b 184 342 273 68 184 177 b 416 602 184 496 272 602 z "},"õ":{"ha":836,"x_min":0,"x_max":0,"o":"m 260 835 b 323 914 271 888 292 914 b 399 876 355 914 375 897 b 501 836 430 850 464 836 b 640 956 568 836 615 883 l 585 981 b 503 904 564 934 541 904 b 440 932 483 904 462 913 b 330 982 399 964 369 982 b 200 852 262 982 218 929 z m 419 684 b 184 587 321 684 243 652 b 97 342 126 523 97 441 b 183 83 97 234 125 148 b 416 -14 241 19 318 -14 b 650 84 513 -14 591 19 b 739 342 709 149 739 235 b 419 684 739 536 609 684 z m 416 602 b 652 342 557 602 652 496 b 419 68 652 176 556 68 b 184 342 273 68 184 177 b 416 602 184 496 272 602 z "},"ö":{"ha":836,"x_min":0,"x_max":0,"o":"m 285 956 b 227 899 252 956 227 930 b 285 840 227 866 252 840 b 342 899 317 840 342 867 b 285 956 342 930 317 956 z m 557 956 b 498 899 524 956 498 930 b 557 840 498 866 524 840 b 614 899 589 840 614 867 b 557 956 614 930 589 956 z m 419 684 b 184 587 321 684 243 652 b 97 342 126 523 97 441 b 183 83 97 234 125 148 b 416 -14 241 19 318 -14 b 650 84 513 -14 591 19 b 739 342 709 149 739 235 b 419 684 739 536 609 684 z m 416 602 b 652 342 557 602 652 496 b 419 68 652 176 556 68 b 184 342 273 68 184 177 b 416 602 184 496 272 602 z "},"÷":{"ha":764,"x_min":0,"x_max":0,"o":"m 380 704 b 307 631 342 704 307 669 b 380 551 307 587 342 551 b 461 631 427 551 461 585 b 380 704 461 669 425 704 z m 673 395 l 90 395 l 90 314 l 673 314 z m 380 158 b 307 85 342 158 307 123 b 380 5 307 41 342 5 b 461 85 427 5 461 39 b 380 158 461 123 425 158 z "},"ø":{"ha":836,"x_min":0,"x_max":0,"o":"m 416 602 b 652 342 557 602 652 496 b 419 68 652 176 556 68 b 184 342 273 68 184 177 b 416 602 184 496 272 602 z m 416 -14 b 650 84 513 -14 591 19 b 739 342 709 149 739 235 b 614 619 739 458 694 557 l 705 778 l 640 812 l 550 657 b 419 684 510 675 466 684 b 184 587 321 684 243 652 b 97 342 126 523 97 441 b 207 60 97 220 136 122 l 122 -85 l 187 -122 l 268 18 b 416 -14 311 -3 361 -14 z "},"ù":{"ha":863,"x_min":0,"x_max":0,"o":"m 249 971 l 517 800 l 553 856 l 292 1036 z m 720 0 l 720 669 l 636 669 l 636 340 b 396 68 636 177 541 68 b 277 110 345 68 304 82 b 231 208 247 140 233 182 b 229 265 230 221 229 240 l 229 669 l 146 669 l 146 254 b 164 122 146 194 146 170 b 204 56 173 98 186 76 b 379 -14 244 9 302 -14 b 636 140 466 -14 576 23 l 642 0 z "},"ú":{"ha":863,"x_min":0,"x_max":0,"o":"m 311 856 l 347 800 l 615 971 l 572 1036 z m 720 0 l 720 669 l 636 669 l 636 340 b 396 68 636 177 541 68 b 277 110 345 68 304 82 b 231 208 247 140 233 182 b 229 265 230 221 229 240 l 229 669 l 146 669 l 146 254 b 164 122 146 194 146 170 b 204 56 173 98 186 76 b 379 -14 244 9 302 -14 b 636 140 466 -14 576 23 l 642 0 z "},"û":{"ha":863,"x_min":0,"x_max":0,"o":"m 629 846 l 432 985 l 235 846 l 268 800 l 432 903 l 596 800 z m 720 0 l 720 669 l 636 669 l 636 340 b 396 68 636 177 541 68 b 277 110 345 68 304 82 b 231 208 247 140 233 182 b 229 265 230 221 229 240 l 229 669 l 146 669 l 146 254 b 164 122 146 194 146 170 b 204 56 173 98 186 76 b 379 -14 244 9 302 -14 b 636 140 466 -14 576 23 l 642 0 z "},"ü":{"ha":863,"x_min":0,"x_max":0,"o":"m 297 956 b 239 899 264 956 239 930 b 297 840 239 866 264 840 b 354 899 329 840 354 867 b 297 956 354 930 329 956 z m 570 956 b 511 899 536 956 511 930 b 570 840 511 866 537 840 b 627 899 602 840 627 867 b 570 956 627 930 602 956 z m 720 0 l 720 669 l 636 669 l 636 340 b 396 68 636 177 541 68 b 277 110 345 68 304 82 b 231 208 247 140 233 182 b 229 265 230 221 229 240 l 229 669 l 146 669 l 146 254 b 164 122 146 194 146 170 b 204 56 173 98 186 76 b 379 -14 244 9 302 -14 b 636 140 466 -14 576 23 l 642 0 z "},"ý":{"ha":690,"x_min":0,"x_max":0,"o":"m 225 856 l 261 800 l 529 971 l 486 1036 z m 656 669 l 567 669 l 345 123 l 127 669 l 35 669 l 294 16 l 207 -195 l 281 -227 z "},"þ":{"ha":872,"x_min":0,"x_max":0,"o":"m 460 69 b 236 150 367 69 292 96 l 236 334 b 306 532 236 419 259 486 b 478 603 353 579 410 603 b 688 336 576 603 688 522 b 460 69 688 160 580 69 z m 453 -14 b 775 350 632 -14 775 112 b 492 684 775 574 633 684 b 236 530 381 684 288 633 l 236 928 l 153 928 l 153 -222 l 236 -222 l 236 47 b 453 -14 296 7 368 -14 z "},"ÿ":{"ha":690,"x_min":0,"x_max":0,"o":"m 211 956 b 153 899 178 956 153 930 b 211 840 153 866 178 840 b 268 899 243 840 268 867 b 211 956 268 930 243 956 z m 484 956 b 425 899 450 956 425 930 b 484 840 425 866 451 840 b 541 899 515 840 541 867 b 484 956 541 930 515 956 z m 656 669 l 567 669 l 345 123 l 127 669 l 35 669 l 294 16 l 207 -195 l 281 -227 z "},"Ā":{"ha":844,"x_min":0,"x_max":0,"o":"m 250 1084 l 595 1084 l 595 1140 l 250 1140 z m 243 330 l 416 831 l 597 330 z m 803 0 l 478 900 l 357 900 l 41 0 l 127 0 l 215 250 l 625 250 l 715 0 z "},"ā":{"ha":794,"x_min":0,"x_max":0,"o":"m 201 872 l 546 872 l 546 928 l 201 928 z m 350 66 b 199 186 258 66 199 104 b 235 264 199 220 210 237 b 391 322 277 301 319 317 b 524 326 441 328 463 326 l 566 326 l 566 302 b 350 66 566 161 476 66 z m 648 0 l 648 393 b 641 507 648 446 648 463 b 586 614 633 549 616 583 b 378 684 541 661 471 684 b 151 647 295 684 220 671 l 172 574 b 368 604 234 594 299 604 b 524 557 444 604 496 589 b 566 397 559 517 566 472 l 553 397 b 461 397 513 397 482 397 b 378 392 440 396 412 395 b 294 380 343 389 315 385 b 165 313 251 368 199 345 b 111 179 130 277 111 232 b 330 -14 111 32 230 -14 b 566 123 433 -14 517 36 l 570 0 z "},"Ă":{"ha":844,"x_min":0,"x_max":0,"o":"m 241 1210 b 422 1022 241 1098 312 1022 b 603 1210 533 1022 603 1098 l 539 1210 b 421 1089 539 1143 489 1089 b 306 1210 354 1089 306 1141 z m 243 330 l 416 831 l 597 330 z m 803 0 l 478 900 l 357 900 l 41 0 l 127 0 l 215 250 l 625 250 l 715 0 z "},"ă":{"ha":794,"x_min":0,"x_max":0,"o":"m 193 997 b 374 810 193 885 263 810 b 554 997 484 810 554 885 l 490 997 b 372 876 490 930 440 876 b 257 997 305 876 257 928 z m 350 66 b 199 186 258 66 199 104 b 235 264 199 220 210 237 b 391 322 277 301 319 317 b 524 326 441 328 463 326 l 566 326 l 566 302 b 350 66 566 161 476 66 z m 648 0 l 648 393 b 641 507 648 446 648 463 b 586 614 633 549 616 583 b 378 684 541 661 471 684 b 151 647 295 684 220 671 l 172 574 b 368 604 234 594 299 604 b 524 557 444 604 496 589 b 566 397 559 517 566 472 l 553 397 b 461 397 513 397 482 397 b 378 392 440 396 412 395 b 294 380 343 389 315 385 b 165 313 251 368 199 345 b 111 179 130 277 111 232 b 330 -14 111 32 230 -14 b 566 123 433 -14 517 36 l 570 0 z "},"Ą":{"ha":844,"x_min":0,"x_max":0,"o":"m 243 330 l 416 831 l 597 330 z m 777 -193 b 728 -98 744 -167 728 -135 b 803 0 732 -52 762 -27 l 478 900 l 357 900 l 41 0 l 127 0 l 215 250 l 625 250 l 711 11 b 652 -109 671 -23 652 -63 b 722 -243 652 -162 675 -207 z "},"ą":{"ha":794,"x_min":0,"x_max":0,"o":"m 350 66 b 199 186 258 66 199 104 b 235 264 199 220 210 237 b 391 322 277 301 319 317 b 524 326 441 328 463 326 l 566 326 l 566 302 b 350 66 566 161 476 66 z m 623 -193 b 574 -98 590 -167 574 -135 b 648 0 574 -58 602 -32 l 648 393 b 641 507 648 446 648 463 b 586 614 633 549 616 583 b 378 684 541 661 471 684 b 151 647 295 684 220 671 l 172 574 b 368 604 234 594 299 604 b 524 557 444 604 496 589 b 566 397 559 517 566 472 l 553 397 b 461 397 513 397 482 397 b 378 392 440 396 412 395 b 294 380 343 389 315 385 b 165 313 251 368 199 345 b 111 179 130 277 111 232 b 330 -14 111 32 230 -14 b 566 123 433 -14 517 36 l 570 21 b 497 -109 522 -15 497 -58 b 568 -243 497 -161 521 -206 z "},"Ć":{"ha":851,"x_min":0,"x_max":0,"o":"m 396 1068 l 432 1013 l 700 1183 l 657 1249 z m 823 817 b 518 914 734 882 633 914 b 83 444 283 920 78 705 b 511 -14 78 193 279 -19 b 821 94 647 -14 737 26 l 768 157 b 517 66 712 107 614 66 b 172 457 330 61 169 249 b 528 832 172 678 339 832 b 778 749 610 832 713 798 z "},"ć":{"ha":724,"x_min":0,"x_max":0,"o":"m 302 856 l 339 800 l 607 971 l 564 1036 z m 660 586 b 428 684 608 642 526 684 b 191 585 332 684 252 650 b 97 328 128 518 97 433 b 424 -14 94 147 231 -17 b 682 118 538 -14 617 32 l 619 165 b 424 69 566 100 513 69 b 254 145 356 69 299 94 b 184 335 208 196 184 259 b 255 524 184 410 208 473 b 425 602 302 576 358 602 b 606 526 494 602 559 570 z "},"Ĉ":{"ha":851,"x_min":0,"x_max":0,"o":"m 714 1059 l 517 1197 l 319 1059 l 353 1013 l 517 1116 l 681 1013 z m 823 817 b 518 914 734 882 633 914 b 83 444 283 920 78 705 b 511 -14 78 193 279 -19 b 821 94 647 -14 737 26 l 768 157 b 517 66 712 107 614 66 b 172 457 330 61 169 249 b 528 832 172 678 339 832 b 778 749 610 832 713 798 z "},"ĉ":{"ha":724,"x_min":0,"x_max":0,"o":"m 621 846 l 424 985 l 227 846 l 260 800 l 424 903 l 587 800 z m 660 586 b 428 684 608 642 526 684 b 191 585 332 684 252 650 b 97 328 128 518 97 433 b 424 -14 94 147 231 -17 b 682 118 538 -14 617 32 l 619 165 b 424 69 566 100 513 69 b 254 145 356 69 299 94 b 184 335 208 196 184 259 b 255 524 184 410 208 473 b 425 602 302 576 358 602 b 606 526 494 602 559 570 z "},"Ċ":{"ha":851,"x_min":0,"x_max":0,"o":"m 518 1168 b 460 1111 485 1168 460 1143 b 518 1053 460 1078 486 1053 b 575 1111 550 1053 575 1079 b 518 1168 575 1143 550 1168 z m 823 817 b 518 914 734 882 633 914 b 83 444 283 920 78 705 b 511 -14 78 193 279 -19 b 821 94 647 -14 737 26 l 768 157 b 517 66 712 107 614 66 b 172 457 330 61 169 249 b 528 832 172 678 339 832 b 778 749 610 832 713 798 z "},"ċ":{"ha":724,"x_min":0,"x_max":0,"o":"m 425 956 b 367 899 392 956 367 930 b 425 840 367 866 393 840 b 482 899 457 840 482 867 b 425 956 482 930 457 956 z m 660 586 b 428 684 608 642 526 684 b 191 585 332 684 252 650 b 97 328 128 518 97 433 b 424 -14 94 147 231 -17 b 682 118 538 -14 617 32 l 619 165 b 424 69 566 100 513 69 b 254 145 356 69 299 94 b 184 335 208 196 184 259 b 255 524 184 410 208 473 b 425 602 302 576 358 602 b 606 526 494 602 559 570 z "},"Č":{"ha":851,"x_min":0,"x_max":0,"o":"m 728 1152 l 694 1197 l 530 1095 l 367 1197 l 334 1152 l 530 1013 z m 823 817 b 518 914 734 882 633 914 b 83 444 283 920 78 705 b 511 -14 78 193 279 -19 b 821 94 647 -14 737 26 l 768 157 b 517 66 712 107 614 66 b 172 457 330 61 169 249 b 528 832 172 678 339 832 b 778 749 610 832 713 798 z "},"č":{"ha":724,"x_min":0,"x_max":0,"o":"m 635 939 l 602 985 l 437 882 l 273 985 l 240 939 l 437 800 z m 660 586 b 428 684 608 642 526 684 b 191 585 332 684 252 650 b 97 328 128 518 97 433 b 424 -14 94 147 231 -17 b 682 118 538 -14 617 32 l 619 165 b 424 69 566 100 513 69 b 254 145 356 69 299 94 b 184 335 208 196 184 259 b 255 524 184 410 208 473 b 425 602 302 576 358 602 b 606 526 494 602 559 570 z "},"Ď":{"ha":1000,"x_min":0,"x_max":0,"o":"m 656 1152 l 623 1197 l 458 1095 l 294 1197 l 261 1152 l 458 1013 z m 457 819 b 567 814 512 819 524 820 b 618 804 588 812 605 808 b 718 743 645 793 683 773 b 829 469 789 683 829 585 b 718 165 829 336 789 231 b 641 112 693 142 665 123 b 559 87 617 99 581 91 b 468 81 536 82 490 81 b 418 81 456 81 440 81 l 250 81 l 250 819 z m 418 0 b 562 7 486 0 497 -1 b 637 24 591 11 616 17 b 778 113 677 39 732 69 b 917 469 868 200 917 323 b 777 806 917 612 870 725 b 562 894 704 862 644 885 b 418 900 497 901 486 900 l 167 900 l 167 0 z "},"ď":{"ha":865,"x_min":0,"x_max":0,"o":"m 395 66 b 184 335 266 66 184 170 b 412 604 184 500 273 604 b 636 525 505 604 587 574 l 636 338 b 395 66 636 170 543 66 z m 720 0 l 720 928 l 636 928 l 636 623 b 432 684 576 663 508 684 b 188 586 330 684 248 651 b 97 321 127 520 97 432 b 380 -14 97 116 207 -14 b 636 140 497 -14 587 42 l 640 0 z m 429 -334 b 484 -165 471 -229 484 -193 b 415 -94 484 -125 453 -94 b 351 -158 382 -94 351 -125 b 404 -224 351 -194 372 -219 b 372 -311 399 -243 388 -273 z "},"Đ":{"ha":1027,"x_min":0,"x_max":0,"o":"m 517 497 l 250 497 l 250 819 l 457 819 b 567 814 512 819 524 820 b 618 804 588 812 605 808 b 718 743 645 793 683 773 b 829 469 789 683 829 585 b 718 165 829 336 789 231 b 641 112 693 142 665 123 b 559 87 617 99 581 91 b 468 81 536 82 490 81 b 418 81 456 81 440 81 l 250 81 l 250 416 l 517 416 z m 418 0 b 562 7 486 0 497 -1 b 637 24 591 11 616 17 b 778 113 677 39 732 69 b 917 469 868 200 917 323 b 777 806 917 612 870 725 b 562 894 704 862 644 885 b 418 900 497 901 486 900 l 167 900 l 167 497 l 28 497 l 28 416 l 167 416 l 167 0 z "},"đ":{"ha":872,"x_min":0,"x_max":0,"o":"m 395 66 b 184 335 266 66 184 170 b 412 604 184 500 273 604 b 636 525 505 604 587 574 l 636 338 b 395 66 636 170 543 66 z m 720 0 l 720 770 l 840 770 l 840 847 l 720 847 l 720 928 l 636 928 l 636 847 l 515 847 l 515 770 l 636 770 l 636 623 b 432 684 576 663 508 684 b 188 586 330 684 248 651 b 97 321 127 520 97 432 b 380 -14 97 116 207 -14 b 636 140 497 -14 587 42 l 640 0 z "},"Ē":{"ha":875,"x_min":0,"x_max":0,"o":"m 315 1084 l 660 1084 l 660 1140 l 315 1140 z m 806 0 l 806 81 l 250 81 l 250 416 l 694 416 l 694 497 l 250 497 l 250 819 l 790 819 l 790 900 l 167 900 l 167 0 z "},"ē":{"ha":817,"x_min":0,"x_max":0,"o":"m 252 872 l 596 872 l 596 928 l 252 928 z m 418 602 b 639 364 557 602 636 524 l 184 364 b 418 602 193 512 280 602 z m 656 118 b 456 69 593 89 517 69 b 189 286 309 69 213 151 l 724 286 b 726 386 727 318 728 351 b 428 684 723 568 606 684 b 186 589 327 684 246 652 b 97 332 127 525 97 439 b 189 81 97 227 127 142 b 437 -12 251 19 334 -12 b 686 46 522 -14 618 9 z "},"Ė":{"ha":875,"x_min":0,"x_max":0,"o":"m 489 1168 b 431 1111 456 1168 431 1143 b 489 1053 431 1078 456 1053 b 546 1111 521 1053 546 1079 b 489 1168 546 1143 521 1168 z m 806 0 l 806 81 l 250 81 l 250 416 l 694 416 l 694 497 l 250 497 l 250 819 l 790 819 l 790 900 l 167 900 l 167 0 z "},"ė":{"ha":817,"x_min":0,"x_max":0,"o":"m 425 956 b 367 899 392 956 367 930 b 425 840 367 866 393 840 b 482 899 457 840 482 867 b 425 956 482 930 457 956 z m 418 602 b 639 364 557 602 636 524 l 184 364 b 418 602 193 512 280 602 z m 656 118 b 456 69 593 89 517 69 b 189 286 309 69 213 151 l 724 286 b 726 386 727 318 728 351 b 428 684 723 568 606 684 b 186 589 327 684 246 652 b 97 332 127 525 97 439 b 189 81 97 227 127 142 b 437 -12 251 19 334 -12 b 686 46 522 -14 618 9 z "},"Ę":{"ha":875,"x_min":0,"x_max":0,"o":"m 779 -193 b 730 -98 747 -167 730 -135 b 806 0 735 -52 764 -27 l 806 81 l 250 81 l 250 416 l 694 416 l 694 497 l 250 497 l 250 819 l 790 819 l 790 900 l 167 900 l 167 0 l 701 0 b 654 -109 670 -33 654 -68 b 725 -243 654 -162 678 -207 l 779 -193 z "},"ę":{"ha":817,"x_min":0,"x_max":0,"o":"m 418 602 b 639 364 557 602 636 524 l 184 364 b 418 602 193 512 280 602 z m 657 -147 b 608 -53 625 -121 608 -89 b 673 39 608 -17 633 9 b 686 46 676 41 684 44 l 656 118 b 456 69 593 89 517 69 b 189 286 309 69 213 151 l 724 286 b 726 386 727 318 728 351 b 428 684 723 568 606 684 b 186 589 327 684 246 652 b 97 332 127 525 97 439 b 189 81 97 227 127 142 b 437 -12 251 19 334 -12 b 545 -3 477 -12 513 -9 b 532 -62 536 -22 532 -42 b 603 -197 532 -116 555 -161 z "},"Ě":{"ha":875,"x_min":0,"x_max":0,"o":"m 699 1152 l 665 1197 l 501 1095 l 338 1197 l 304 1152 l 501 1013 z m 806 0 l 806 81 l 250 81 l 250 416 l 694 416 l 694 497 l 250 497 l 250 819 l 790 819 l 790 900 l 167 900 l 167 0 z "},"ě":{"ha":817,"x_min":0,"x_max":0,"o":"m 635 939 l 602 985 l 437 882 l 273 985 l 240 939 l 437 800 z m 418 602 b 639 364 557 602 636 524 l 184 364 b 418 602 193 512 280 602 z m 656 118 b 456 69 593 89 517 69 b 189 286 309 69 213 151 l 724 286 b 726 386 727 318 728 351 b 428 684 723 568 606 684 b 186 589 327 684 246 652 b 97 332 127 525 97 439 b 189 81 97 227 127 142 b 437 -12 251 19 334 -12 b 686 46 522 -14 618 9 z "},"Ĝ":{"ha":960,"x_min":0,"x_max":0,"o":"m 714 1059 l 517 1197 l 319 1059 l 353 1013 l 517 1116 l 681 1013 z m 863 488 l 481 488 l 481 407 l 779 407 l 779 192 b 532 66 741 116 650 66 b 274 176 428 66 342 103 b 172 457 206 248 172 342 b 510 832 172 671 338 832 b 692 798 588 832 648 821 b 789 725 735 775 758 757 l 847 783 b 529 914 791 848 704 914 b 83 444 281 920 80 715 b 526 -14 83 165 285 -14 b 863 174 688 -14 800 49 z "},"ĝ":{"ha":865,"x_min":0,"x_max":0,"o":"m 604 846 l 407 985 l 210 846 l 243 800 l 407 903 l 571 800 z m 395 150 b 184 376 266 150 184 237 b 412 604 184 517 273 604 b 636 525 505 604 587 574 l 636 379 b 395 150 636 240 543 150 z m 382 -236 b 652 -121 500 -236 590 -197 b 711 4 684 -80 703 -41 b 720 117 719 48 720 67 l 720 669 l 636 669 l 636 623 b 432 684 576 663 508 684 b 97 363 227 684 97 560 b 380 69 97 183 207 69 b 636 205 497 69 587 118 l 636 96 b 395 -151 636 -31 564 -151 b 235 -119 334 -151 268 -134 b 175 -92 218 -112 197 -103 l 134 -170 b 382 -236 207 -214 290 -236 z "},"Ğ":{"ha":960,"x_min":0,"x_max":0,"o":"m 336 1210 b 517 1022 336 1098 406 1022 b 697 1210 627 1022 697 1098 l 633 1210 b 515 1089 633 1143 583 1089 b 400 1210 448 1089 400 1141 z m 863 488 l 481 488 l 481 407 l 779 407 l 779 192 b 532 66 741 116 650 66 b 274 176 428 66 342 103 b 172 457 206 248 172 342 b 510 832 172 671 338 832 b 692 798 588 832 648 821 b 789 725 735 775 758 757 l 847 783 b 529 914 791 848 704 914 b 83 444 281 920 80 715 b 526 -14 83 165 285 -14 b 863 174 688 -14 800 49 z "},"ğ":{"ha":865,"x_min":0,"x_max":0,"o":"m 227 997 b 407 810 227 885 296 810 b 587 997 517 810 587 885 l 524 997 b 406 876 524 930 473 876 b 290 997 338 876 290 928 z m 395 150 b 184 376 266 150 184 237 b 412 604 184 517 273 604 b 636 525 505 604 587 574 l 636 379 b 395 150 636 240 543 150 z m 382 -236 b 652 -121 500 -236 590 -197 b 711 4 684 -80 703 -41 b 720 117 719 48 720 67 l 720 669 l 636 669 l 636 623 b 432 684 576 663 508 684 b 97 363 227 684 97 560 b 380 69 97 183 207 69 b 636 205 497 69 587 118 l 636 96 b 395 -151 636 -31 564 -151 b 235 -119 334 -151 268 -134 b 175 -92 218 -112 197 -103 l 134 -170 b 382 -236 207 -214 290 -236 z "},"Ġ":{"ha":960,"x_min":0,"x_max":0,"o":"m 518 1168 b 460 1111 485 1168 460 1143 b 518 1053 460 1078 486 1053 b 575 1111 550 1053 575 1079 b 518 1168 575 1143 550 1168 z m 863 488 l 481 488 l 481 407 l 779 407 l 779 192 b 532 66 741 116 650 66 b 274 176 428 66 342 103 b 172 457 206 248 172 342 b 510 832 172 671 338 832 b 692 798 588 832 648 821 b 789 725 735 775 758 757 l 847 783 b 529 914 791 848 704 914 b 83 444 281 920 80 715 b 526 -14 83 165 285 -14 b 863 174 688 -14 800 49 z "},"ġ":{"ha":865,"x_min":0,"x_max":0,"o":"m 408 956 b 350 899 375 956 350 930 b 408 840 350 866 376 840 b 465 899 440 840 465 867 b 408 956 465 930 440 956 z m 395 150 b 184 376 266 150 184 237 b 412 604 184 517 273 604 b 636 525 505 604 587 574 l 636 379 b 395 150 636 240 543 150 z m 382 -236 b 652 -121 500 -236 590 -197 b 711 4 684 -80 703 -41 b 720 117 719 48 720 67 l 720 669 l 636 669 l 636 623 b 432 684 576 663 508 684 b 97 363 227 684 97 560 b 380 69 97 183 207 69 b 636 205 497 69 587 118 l 636 96 b 395 -151 636 -31 564 -151 b 235 -119 334 -151 268 -134 b 175 -92 218 -112 197 -103 l 134 -170 b 382 -236 207 -214 290 -236 z "},"Ģ":{"ha":960,"x_min":0,"x_max":0,"o":"m 863 488 l 481 488 l 481 407 l 779 407 l 779 192 b 532 66 741 116 650 66 b 274 176 428 66 342 103 b 172 457 206 248 172 342 b 510 832 172 671 338 832 b 692 798 588 832 648 821 b 789 725 735 775 758 757 l 847 783 b 529 914 791 848 704 914 b 83 444 281 920 80 715 b 526 -14 83 165 285 -14 b 863 174 688 -14 800 49 z m 541 -334 b 595 -165 582 -229 595 -193 b 526 -94 595 -125 564 -94 b 463 -158 494 -94 463 -125 b 515 -224 463 -194 484 -219 b 484 -311 510 -243 499 -273 z "},"ģ":{"ha":865,"x_min":0,"x_max":0,"o":"m 422 789 b 486 852 457 789 486 820 b 433 918 486 888 465 913 b 465 1006 439 938 450 967 l 408 1028 b 354 860 367 923 354 887 b 422 789 354 820 385 789 z m 395 150 b 184 376 266 150 184 237 b 412 604 184 517 273 604 b 636 525 505 604 587 574 l 636 379 b 395 150 636 240 543 150 z m 382 -236 b 652 -121 500 -236 590 -197 b 711 4 684 -80 703 -41 b 720 117 719 48 720 67 l 720 669 l 636 669 l 636 623 b 432 684 576 663 508 684 b 97 363 227 684 97 560 b 380 69 97 183 207 69 b 636 205 497 69 587 118 l 636 96 b 395 -151 636 -31 564 -151 b 235 -119 334 -151 268 -134 b 175 -92 218 -112 197 -103 l 134 -170 b 382 -236 207 -214 290 -236 z "},"Ĥ":{"ha":1057,"x_min":0,"x_max":0,"o":"m 726 1059 l 529 1197 l 332 1059 l 366 1013 l 529 1116 l 693 1013 z m 890 0 l 890 900 l 807 900 l 807 497 l 250 497 l 250 900 l 167 900 l 167 0 l 250 0 l 250 416 l 807 416 l 807 0 z "},"ĥ":{"ha":879,"x_min":0,"x_max":0,"o":"m 385 1010 l 187 1149 l -9 1010 l 24 964 l 187 1067 l 351 964 z m 229 329 b 473 602 229 493 327 602 b 612 547 534 602 580 583 b 648 444 636 520 646 474 b 650 378 649 429 650 407 l 650 0 l 733 0 l 733 393 b 732 471 733 428 732 454 b 719 535 731 488 726 510 b 684 600 711 560 699 582 b 488 684 637 656 572 684 b 229 530 398 684 288 646 l 229 928 l 146 928 l 146 0 l 229 0 z "},"Ħ":{"ha":1084,"x_min":0,"x_max":0,"o":"m 250 497 l 250 668 l 807 668 l 807 497 z m 890 0 l 890 668 l 1043 668 l 1043 749 l 890 749 l 890 900 l 807 900 l 807 749 l 250 749 l 250 900 l 167 900 l 167 749 l 41 749 l 41 668 l 167 668 l 167 0 l 250 0 l 250 416 l 807 416 l 807 0 z "},"ħ":{"ha":892,"x_min":0,"x_max":0,"o":"m 229 329 b 473 602 229 493 327 602 b 612 547 534 602 580 583 b 648 444 636 520 646 474 b 650 378 649 429 650 407 l 650 0 l 733 0 l 733 393 b 732 471 733 428 732 454 b 719 535 731 488 726 510 b 684 600 711 560 699 582 b 488 684 637 656 572 684 b 229 530 398 684 288 646 l 229 770 l 371 770 l 371 847 l 229 847 l 229 928 l 146 928 l 146 847 l 46 847 l 46 770 l 146 770 l 146 0 l 229 0 l 229 329 z "},"Ī":{"ha":416,"x_min":0,"x_max":0,"o":"m 37 1084 l 382 1084 l 382 1140 l 37 1140 z m 167 0 l 250 0 l 250 900 l 167 900 z "},"ī":{"ha":389,"x_min":0,"x_max":0,"o":"m 24 872 l 368 872 l 368 928 l 24 928 z m 153 0 l 236 0 l 236 669 l 153 669 z "},"Į":{"ha":416,"x_min":0,"x_max":0,"o":"m 224 -193 b 175 -98 191 -167 175 -135 b 250 0 180 -52 209 -27 l 250 900 l 167 900 l 167 18 b 98 -109 121 -18 98 -60 b 170 -243 98 -161 122 -206 l 224 -193 z "},"į":{"ha":374,"x_min":0,"x_max":0,"o":"m 187 956 b 129 899 154 956 129 930 b 187 840 129 866 155 840 b 244 899 219 840 244 867 b 187 956 244 930 219 956 z m 203 -193 b 154 -98 170 -167 154 -135 b 229 0 159 -52 188 -27 l 229 669 l 146 669 l 146 18 b 78 -109 100 -18 78 -60 b 149 -243 78 -162 102 -207 z "},"İ":{"ha":416,"x_min":0,"x_max":0,"o":"m 211 1168 b 153 1111 178 1168 153 1143 b 211 1053 153 1078 178 1053 b 268 1111 243 1053 268 1079 b 211 1168 268 1143 243 1168 z m 167 0 l 250 0 l 250 900 l 167 900 z "},"ı":{"ha":389,"x_min":0,"x_max":0,"o":"m 153 0 l 236 0 l 236 669 l 153 669 z "},"ĳ":{"ha":764,"x_min":0,"x_max":0,"o":"m 561 956 b 503 899 528 956 503 930 b 561 840 503 866 528 840 b 618 899 593 840 618 867 b 561 956 618 930 593 956 z m 187 956 b 129 899 154 956 129 930 b 187 840 129 866 155 840 b 244 899 219 840 244 867 b 187 956 244 930 219 956 z m 519 171 b 511 62 519 120 519 103 b 490 3 506 41 499 21 b 347 -138 459 -62 412 -109 l 387 -208 b 564 -32 468 -168 527 -109 b 602 109 588 20 599 74 b 603 180 602 125 603 149 l 603 669 l 519 669 z m 146 0 l 229 0 l 229 669 l 146 669 z "},"Ĵ":{"ha":469,"x_min":0,"x_max":0,"o":"m 457 1059 l 260 1197 l 62 1059 l 96 1013 l 260 1116 l 424 1013 z m 220 176 b 189 11 220 108 216 66 b 53 -107 167 -37 121 -77 l 89 -176 b 279 20 190 -132 253 -67 b 302 201 295 71 302 132 l 302 900 l 220 900 z "},"ĵ":{"ha":410,"x_min":0,"x_max":0,"o":"m 411 846 l 214 985 l 17 846 l 50 800 l 214 903 l 378 800 z m 174 171 b 165 42 174 114 174 92 b 147 -25 161 17 155 -5 b 7 -165 121 -87 74 -134 l 47 -236 b 231 -37 142 -190 203 -123 b 256 107 247 14 254 73 b 257 180 257 124 257 149 l 257 669 l 174 669 z "},"Ķ":{"ha":861,"x_min":0,"x_max":0,"o":"m 833 0 l 346 468 l 779 900 l 672 900 l 250 484 l 250 900 l 167 900 l 167 0 l 250 0 l 250 449 l 717 0 z m 464 -334 b 518 -165 505 -229 518 -193 b 450 -94 518 -125 488 -94 b 386 -158 417 -94 386 -125 b 439 -224 386 -194 407 -219 b 407 -311 433 -243 422 -273 z "},"ķ":{"ha":709,"x_min":0,"x_max":0,"o":"m 703 0 l 311 342 l 640 669 l 533 669 l 229 367 l 229 928 l 146 928 l 146 0 l 229 0 l 229 297 l 575 0 z m 392 -334 b 446 -165 433 -233 446 -192 b 378 -94 446 -125 415 -94 b 314 -158 345 -94 314 -125 b 367 -224 314 -194 335 -219 b 335 -311 361 -243 351 -273 z "},"Ĺ":{"ha":734,"x_min":0,"x_max":0,"o":"m 96 1068 l 132 1013 l 400 1183 l 357 1249 z m 728 0 l 728 81 l 250 81 l 250 900 l 167 900 l 167 0 z "},"ĺ":{"ha":374,"x_min":0,"x_max":0,"o":"m 65 1061 l 102 1006 l 370 1177 l 326 1242 z m 229 0 l 229 928 l 146 928 l 146 0 z "},"Ļ":{"ha":734,"x_min":0,"x_max":0,"o":"m 728 0 l 728 81 l 250 81 l 250 900 l 167 900 l 167 0 z m 463 -334 b 517 -165 504 -229 517 -193 b 449 -94 517 -125 486 -94 b 385 -158 416 -94 385 -125 b 437 -224 385 -194 406 -219 b 406 -311 432 -243 421 -273 z "},"ļ":{"ha":374,"x_min":0,"x_max":0,"o":"m 229 0 l 229 928 l 146 928 l 146 0 z m 201 -334 b 256 -165 243 -229 256 -193 b 187 -94 256 -125 225 -94 b 123 -158 155 -94 123 -125 b 176 -224 123 -194 144 -219 b 144 -311 171 -243 160 -273 z "},"Ľ":{"ha":734,"x_min":0,"x_max":0,"o":"m 366 852 l 425 822 l 571 1104 l 501 1139 z m 728 0 l 728 81 l 250 81 l 250 900 l 167 900 l 167 0 z "},"ľ":{"ha":374,"x_min":0,"x_max":0,"o":"m 310 852 l 370 822 l 515 1104 l 446 1139 z m 229 0 l 229 928 l 146 928 l 146 0 z "},"Ŀ":{"ha":734,"x_min":0,"x_max":0,"o":"m 728 0 l 728 81 l 250 81 l 250 900 l 167 900 l 167 0 z m 515 545 b 457 488 482 545 457 519 b 515 429 457 455 483 429 b 572 488 547 429 572 456 b 515 545 572 519 547 545 z "},"ŀ":{"ha":402,"x_min":0,"x_max":0,"o":"m 229 0 l 229 928 l 146 928 l 146 0 z m 380 513 b 322 456 347 513 322 488 b 380 397 322 423 348 397 b 437 456 412 397 437 424 b 380 513 437 488 412 513 z "},"Ł":{"ha":748,"x_min":0,"x_max":0,"o":"m 728 81 l 250 81 l 250 410 l 418 507 l 379 575 l 250 501 l 250 900 l 167 900 l 167 453 l 26 372 l 65 304 l 167 363 l 167 0 l 728 0 z "},"ł":{"ha":389,"x_min":0,"x_max":0,"o":"m 229 463 l 355 536 l 317 604 l 229 554 l 229 928 l 146 928 l 146 505 l 36 441 l 75 374 l 146 415 l 146 0 l 229 0 z "},"Ń":{"ha":1062,"x_min":0,"x_max":0,"o":"m 416 1068 l 453 1013 l 721 1183 l 677 1249 z m 896 0 l 896 900 l 812 900 l 812 66 l 323 900 l 167 900 l 167 0 l 250 0 l 250 854 l 753 0 z "},"ń":{"ha":879,"x_min":0,"x_max":0,"o":"m 358 856 l 395 800 l 663 971 l 619 1036 z m 229 329 b 473 602 229 493 327 602 b 612 547 534 602 580 583 b 648 444 636 520 646 474 b 650 378 649 429 650 407 l 650 0 l 733 0 l 733 393 b 732 471 733 428 732 454 b 719 535 731 488 726 510 b 684 600 711 560 699 582 b 488 684 637 656 572 684 b 229 530 398 684 288 646 l 224 669 l 146 669 l 146 0 l 229 0 z "},"Ņ":{"ha":1062,"x_min":0,"x_max":0,"o":"m 896 0 l 896 900 l 812 900 l 812 66 l 323 900 l 167 900 l 167 0 l 250 0 l 250 854 l 753 0 z m 543 -334 b 597 -165 585 -229 597 -193 b 529 -94 597 -125 567 -94 b 465 -158 496 -94 465 -125 b 518 -224 465 -194 486 -219 b 486 -311 513 -243 502 -273 z "},"ņ":{"ha":879,"x_min":0,"x_max":0,"o":"m 229 329 b 473 602 229 493 327 602 b 612 547 534 602 580 583 b 648 444 636 520 646 474 b 650 378 649 429 650 407 l 650 0 l 733 0 l 733 393 b 732 471 733 428 732 454 b 719 535 731 488 726 510 b 684 600 711 560 699 582 b 488 684 637 656 572 684 b 229 530 398 684 288 646 l 224 669 l 146 669 l 146 0 l 229 0 z m 452 -334 b 505 -165 493 -233 505 -192 b 437 -94 505 -125 475 -94 b 374 -158 405 -94 374 -125 b 427 -224 374 -194 395 -219 b 395 -311 421 -243 410 -273 z "},"Ň":{"ha":1062,"x_min":0,"x_max":0,"o":"m 749 1152 l 715 1197 l 551 1095 l 387 1197 l 354 1152 l 551 1013 z m 896 0 l 896 900 l 812 900 l 812 66 l 323 900 l 167 900 l 167 0 l 250 0 l 250 854 l 753 0 z "},"ň":{"ha":879,"x_min":0,"x_max":0,"o":"m 690 939 l 657 985 l 493 882 l 329 985 l 296 939 l 493 800 z m 229 329 b 473 602 229 493 327 602 b 612 547 534 602 580 583 b 648 444 636 520 646 474 b 650 378 649 429 650 407 l 650 0 l 733 0 l 733 393 b 732 471 733 428 732 454 b 719 535 731 488 726 510 b 684 600 711 560 699 582 b 488 684 637 656 572 684 b 229 530 398 684 288 646 l 224 669 l 146 669 l 146 0 l 229 0 z "},"Ō":{"ha":1017,"x_min":0,"x_max":0,"o":"m 336 1084 l 681 1084 l 681 1140 l 336 1140 z m 509 914 b 83 450 252 914 83 707 b 509 -16 83 193 250 -16 b 933 450 762 -19 939 196 b 509 914 939 705 760 918 z m 690 781 b 809 258 846 686 892 433 b 510 65 755 142 646 65 b 330 118 442 65 382 83 b 210 642 172 214 127 469 b 510 833 264 758 374 833 b 690 781 578 833 638 816 z "},"ō":{"ha":836,"x_min":0,"x_max":0,"o":"m 248 872 l 591 872 l 591 928 l 248 928 z m 419 684 b 184 587 321 684 243 652 b 97 342 126 523 97 441 b 183 83 97 234 125 148 b 416 -14 241 19 318 -14 b 650 84 513 -14 591 19 b 739 342 709 149 739 235 b 419 684 739 536 609 684 z m 416 602 b 652 342 557 602 652 496 b 419 68 652 176 556 68 b 184 342 273 68 184 177 b 416 602 184 496 272 602 z "},"Ő":{"ha":1017,"x_min":0,"x_max":0,"o":"m 309 1063 l 353 1013 l 595 1219 l 542 1278 z m 562 1067 l 603 1013 l 842 1200 l 793 1263 z m 509 914 b 83 450 252 914 83 707 b 509 -16 83 193 250 -16 b 933 450 762 -19 939 196 b 509 914 939 705 760 918 z m 690 781 b 809 258 846 686 892 433 b 510 65 755 142 646 65 b 330 118 442 65 382 83 b 210 642 172 214 127 469 b 510 833 264 758 374 833 b 690 781 578 833 638 816 z "},"ő":{"ha":836,"x_min":0,"x_max":0,"o":"m 220 850 l 264 800 l 505 1007 l 453 1065 z m 473 854 l 514 800 l 753 987 l 704 1050 z m 419 684 b 184 587 321 684 243 652 b 97 342 126 523 97 441 b 183 83 97 234 125 148 b 416 -14 241 19 318 -14 b 650 84 513 -14 591 19 b 739 342 709 149 739 235 b 419 684 739 536 609 684 z m 416 602 b 652 342 557 602 652 496 b 419 68 652 176 556 68 b 184 342 273 68 184 177 b 416 602 184 496 272 602 z "},"Œ":{"ha":1586,"x_min":0,"x_max":0,"o":"m 704 781 b 823 258 861 686 907 433 b 524 65 769 142 659 65 b 343 118 456 65 395 83 b 224 642 186 214 141 469 b 524 833 278 758 388 833 b 704 781 591 833 652 816 z m 1503 0 l 1503 81 l 933 81 l 933 416 l 1392 416 l 1392 497 l 933 497 l 933 819 l 1487 819 l 1487 900 l 864 900 l 864 718 b 522 914 791 840 669 914 b 97 450 266 914 97 707 b 522 -16 97 193 264 -16 b 864 180 672 -16 793 58 l 864 0 z "},"œ":{"ha":1371,"x_min":0,"x_max":0,"o":"m 972 602 b 1193 364 1112 602 1190 524 l 739 364 b 972 602 748 512 835 602 z m 416 602 b 652 342 557 602 652 496 b 419 68 652 176 556 68 b 184 342 273 68 184 177 b 416 602 184 496 272 602 z m 991 -12 b 1238 46 1075 -14 1170 9 l 1210 118 b 1010 69 1147 89 1072 69 b 743 286 863 69 767 151 l 1278 286 b 1280 386 1281 318 1282 351 b 982 684 1277 568 1160 684 b 694 497 844 684 743 616 b 419 684 646 612 545 684 b 184 587 321 684 243 652 b 97 342 126 523 97 441 b 183 83 97 234 125 148 b 416 -14 241 19 318 -14 b 694 174 545 -14 646 55 b 991 -12 744 55 848 -12 z "},"Ŕ":{"ha":975,"x_min":0,"x_max":0,"o":"m 374 1068 l 410 1013 l 677 1183 l 635 1249 z m 493 819 b 599 812 544 819 558 818 b 704 761 637 805 671 789 b 775 604 751 721 775 669 b 701 428 775 530 751 471 b 601 382 672 403 642 387 b 493 375 561 374 543 375 l 250 375 l 250 819 z m 534 294 l 757 0 l 859 0 l 629 304 b 762 370 677 315 722 337 b 864 607 830 425 864 505 b 762 828 864 697 827 777 b 623 891 718 863 675 883 b 490 900 572 900 549 900 l 167 900 l 167 0 l 250 0 l 250 294 l 504 294 z "},"ŕ":{"ha":491,"x_min":0,"x_max":0,"o":"m 161 856 l 197 800 l 465 971 l 422 1036 z m 229 330 b 444 586 229 506 338 586 l 450 669 b 427 671 444 670 436 671 b 228 534 342 671 271 622 l 224 669 l 146 669 l 146 0 l 229 0 z "},"Ř":{"ha":975,"x_min":0,"x_max":0,"o":"m 705 1152 l 672 1197 l 509 1095 l 345 1197 l 311 1152 l 509 1013 z m 493 819 b 599 812 544 819 558 818 b 704 761 637 805 671 789 b 775 604 751 721 775 669 b 701 428 775 530 751 471 b 601 382 672 403 642 387 b 493 375 561 374 543 375 l 250 375 l 250 819 z m 534 294 l 757 0 l 859 0 l 629 304 b 762 370 677 315 722 337 b 864 607 830 425 864 505 b 762 828 864 697 827 777 b 623 891 718 863 675 883 b 490 900 572 900 549 900 l 167 900 l 167 0 l 250 0 l 250 294 l 504 294 z "},"ř":{"ha":491,"x_min":0,"x_max":0,"o":"m 493 939 l 460 985 l 296 882 l 132 985 l 98 939 l 296 800 z m 229 330 b 444 586 229 506 338 586 l 450 669 b 427 671 444 670 436 671 b 228 534 342 671 271 622 l 224 669 l 146 669 l 146 0 l 229 0 z "},"Ś":{"ha":863,"x_min":0,"x_max":0,"o":"m 345 1068 l 380 1013 l 648 1183 l 606 1249 z m 746 857 b 467 914 668 895 575 914 b 220 851 366 914 284 893 b 123 675 155 808 123 750 b 241 494 123 588 163 534 b 437 424 296 465 351 448 b 682 229 600 380 682 326 b 443 68 682 107 549 68 b 147 170 334 68 236 102 l 97 100 b 443 -14 193 24 308 -14 b 675 54 536 -14 614 9 b 766 236 736 99 766 159 b 694 399 766 309 746 359 b 476 497 642 439 583 465 l 449 505 b 291 561 371 529 333 541 b 243 591 269 570 254 581 b 210 682 222 612 210 641 b 461 832 210 775 309 832 b 594 817 501 832 545 827 b 713 779 643 807 682 795 z "},"ś":{"ha":745,"x_min":0,"x_max":0,"o":"m 254 856 l 290 800 l 558 971 l 515 1036 z m 596 636 b 366 684 522 668 446 684 b 129 500 224 684 129 616 b 364 313 129 396 196 345 b 549 178 487 288 549 243 b 399 65 549 111 488 65 b 150 131 309 65 227 87 l 111 56 b 376 -14 192 9 281 -14 b 635 179 544 -14 635 64 b 408 386 635 292 561 353 b 215 503 265 418 215 444 b 351 606 215 567 262 606 b 567 561 425 606 497 591 z "},"Ŝ":{"ha":863,"x_min":0,"x_max":0,"o":"m 663 1059 l 465 1197 l 268 1059 l 301 1013 l 465 1116 l 629 1013 z m 746 857 b 467 914 668 895 575 914 b 220 851 366 914 284 893 b 123 675 155 808 123 750 b 241 494 123 588 163 534 b 437 424 296 465 351 448 b 682 229 600 380 682 326 b 443 68 682 107 549 68 b 147 170 334 68 236 102 l 97 100 b 443 -14 193 24 308 -14 b 675 54 536 -14 614 9 b 766 236 736 99 766 159 b 694 399 766 309 746 359 b 476 497 642 439 583 465 l 449 505 b 291 561 371 529 333 541 b 243 591 269 570 254 581 b 210 682 222 612 210 641 b 461 832 210 775 309 832 b 594 817 501 832 545 827 b 713 779 643 807 682 795 z "},"ŝ":{"ha":745,"x_min":0,"x_max":0,"o":"m 572 846 l 375 985 l 178 846 l 211 800 l 375 903 l 539 800 z m 596 636 b 366 684 522 668 446 684 b 129 500 224 684 129 616 b 364 313 129 396 196 345 b 549 178 487 288 549 243 b 399 65 549 111 488 65 b 150 131 309 65 227 87 l 111 56 b 376 -14 192 9 281 -14 b 635 179 544 -14 635 64 b 408 386 635 292 561 353 b 215 503 265 418 215 444 b 351 606 215 567 262 606 b 567 561 425 606 497 591 z "},"Ş":{"ha":863,"x_min":0,"x_max":0,"o":"m 347 -204 b 468 -14 417 -172 457 -108 b 683 60 555 -9 627 15 b 766 236 739 104 766 163 b 694 399 766 309 746 359 b 476 497 642 439 583 465 l 449 505 b 291 561 371 529 333 541 b 243 591 269 570 254 581 b 210 682 222 612 210 641 b 461 832 210 775 309 832 b 594 817 501 832 545 827 b 713 779 643 807 682 795 l 746 857 b 467 914 668 895 575 914 b 220 851 366 914 284 893 b 123 675 155 808 123 750 b 241 494 123 588 163 534 b 437 424 296 465 351 448 b 682 229 600 380 682 326 b 443 68 682 107 549 68 b 147 170 334 68 236 102 l 97 100 b 404 -12 186 30 289 -7 b 315 -147 395 -78 365 -123 l 347 -204 z "},"ş":{"ha":745,"x_min":0,"x_max":0,"o":"m 264 -204 b 385 -14 334 -172 374 -108 b 635 179 545 -14 635 66 b 408 386 635 292 561 353 b 215 503 265 418 215 444 b 351 606 215 567 262 606 b 567 561 425 606 497 591 l 596 636 b 366 684 522 668 446 684 b 129 500 224 684 129 616 b 364 313 129 396 196 345 b 549 178 487 288 549 243 b 399 65 549 111 488 65 b 150 131 309 65 227 87 l 111 56 b 321 -11 178 18 248 -3 b 232 -147 312 -76 282 -121 l 264 -204 z "},"Š":{"ha":863,"x_min":0,"x_max":0,"o":"m 676 1152 l 643 1197 l 479 1095 l 315 1197 l 282 1152 l 479 1013 z m 746 857 b 467 914 668 895 575 914 b 220 851 366 914 284 893 b 123 675 155 808 123 750 b 241 494 123 588 163 534 b 437 424 296 465 351 448 b 682 229 600 380 682 326 b 443 68 682 107 549 68 b 147 170 334 68 236 102 l 97 100 b 443 -14 193 24 308 -14 b 675 54 536 -14 614 9 b 766 236 736 99 766 159 b 694 399 766 309 746 359 b 476 497 642 439 583 465 l 449 505 b 291 561 371 529 333 541 b 243 591 269 570 254 581 b 210 682 222 612 210 641 b 461 832 210 775 309 832 b 594 817 501 832 545 827 b 713 779 643 807 682 795 z "},"š":{"ha":745,"x_min":0,"x_max":0,"o":"m 586 939 l 553 985 l 389 882 l 225 985 l 192 939 l 389 800 z m 596 636 b 366 684 522 668 446 684 b 129 500 224 684 129 616 b 364 313 129 396 196 345 b 549 178 487 288 549 243 b 399 65 549 111 488 65 b 150 131 309 65 227 87 l 111 56 b 376 -14 192 9 281 -14 b 635 179 544 -14 635 64 b 408 386 635 292 561 353 b 215 503 265 418 215 444 b 351 606 215 567 262 606 b 567 561 425 606 497 591 z "},"Ţ":{"ha":728,"x_min":0,"x_max":0,"o":"m 707 900 l 21 900 l 21 819 l 322 819 l 322 0 l 406 0 l 406 819 l 707 819 z m 378 -334 b 432 -165 419 -229 432 -193 b 364 -94 432 -125 401 -94 b 300 -158 331 -94 300 -125 b 353 -224 300 -194 321 -219 b 321 -311 347 -243 336 -273 z "},"ţ":{"ha":583,"x_min":0,"x_max":0,"o":"m 472 92 b 387 68 430 73 425 71 b 314 94 354 68 330 77 b 292 199 292 125 291 153 l 292 591 l 481 591 l 481 669 l 292 669 l 292 844 l 208 844 l 208 669 l 69 669 l 69 591 l 208 591 l 208 183 b 220 83 208 138 208 119 b 248 35 227 64 235 49 b 371 -14 275 3 317 -14 b 445 -4 403 -14 425 -7 b 473 7 450 -2 469 5 b 500 20 475 7 498 20 z m 372 -334 b 427 -165 414 -229 427 -193 b 358 -94 427 -125 396 -94 b 294 -158 326 -94 294 -125 b 347 -224 294 -194 315 -219 b 315 -311 342 -243 331 -273 z "},"Ť":{"ha":728,"x_min":0,"x_max":0,"o":"m 574 1152 l 541 1197 l 376 1095 l 212 1197 l 179 1152 l 376 1013 z m 707 900 l 21 900 l 21 819 l 322 819 l 322 0 l 406 0 l 406 819 l 707 819 z "},"ť":{"ha":583,"x_min":0,"x_max":0,"o":"m 407 852 l 467 822 l 612 1104 l 543 1139 z m 472 92 b 387 68 430 73 425 71 b 314 94 354 68 330 77 b 292 199 292 125 291 153 l 292 591 l 481 591 l 481 669 l 292 669 l 292 844 l 208 844 l 208 669 l 69 669 l 69 591 l 208 591 l 208 183 b 220 83 208 138 208 119 b 248 35 227 64 235 49 b 371 -14 275 3 317 -14 b 445 -4 403 -14 425 -7 b 473 7 450 -2 469 5 b 500 20 475 7 498 20 z "},"Ū":{"ha":987,"x_min":0,"x_max":0,"o":"m 322 1084 l 667 1084 l 667 1140 l 322 1140 z m 848 900 l 765 900 l 765 400 b 760 291 765 347 764 335 b 748 237 758 269 753 252 b 685 139 737 210 717 171 b 493 66 637 91 572 66 b 300 140 411 66 347 91 b 233 267 264 180 241 219 b 222 400 224 314 222 340 l 222 900 l 139 900 l 139 416 b 146 273 139 348 138 334 b 162 203 149 245 155 221 b 244 77 176 165 203 115 b 494 -14 307 16 391 -14 b 747 81 600 -14 684 18 b 835 240 794 127 823 177 b 848 415 848 301 848 338 z "},"ū":{"ha":863,"x_min":0,"x_max":0,"o":"m 260 872 l 604 872 l 604 928 l 260 928 z m 720 0 l 720 669 l 636 669 l 636 340 b 396 68 636 177 541 68 b 277 110 345 68 304 82 b 231 208 247 140 233 182 b 229 265 230 221 229 240 l 229 669 l 146 669 l 146 254 b 164 122 146 194 146 170 b 204 56 173 98 186 76 b 379 -14 244 9 302 -14 b 636 140 466 -14 576 23 l 642 0 z "},"Ŭ":{"ha":987,"x_min":0,"x_max":0,"o":"m 314 1210 b 494 1022 314 1098 384 1022 b 675 1210 605 1022 675 1098 l 611 1210 b 493 1089 611 1143 561 1089 b 378 1210 426 1089 378 1141 z m 848 900 l 765 900 l 765 400 b 760 291 765 347 764 335 b 748 237 758 269 753 252 b 685 139 737 210 717 171 b 493 66 637 91 572 66 b 300 140 411 66 347 91 b 233 267 264 180 241 219 b 222 400 224 314 222 340 l 222 900 l 139 900 l 139 416 b 146 273 139 348 138 334 b 162 203 149 245 155 221 b 244 77 176 165 203 115 b 494 -14 307 16 391 -14 b 747 81 600 -14 684 18 b 835 240 794 127 823 177 b 848 415 848 301 848 338 z "},"ŭ":{"ha":863,"x_min":0,"x_max":0,"o":"m 252 997 b 432 810 252 885 321 810 b 612 997 543 810 612 885 l 549 997 b 431 876 549 930 498 876 b 315 997 363 876 315 928 z m 720 0 l 720 669 l 636 669 l 636 340 b 396 68 636 177 541 68 b 277 110 345 68 304 82 b 231 208 247 140 233 182 b 229 265 230 221 229 240 l 229 669 l 146 669 l 146 254 b 164 122 146 194 146 170 b 204 56 173 98 186 76 b 379 -14 244 9 302 -14 b 636 140 466 -14 576 23 l 642 0 z "},"Ů":{"ha":987,"x_min":0,"x_max":0,"o":"m 496 1008 b 594 1050 533 1008 566 1023 b 636 1150 622 1078 636 1112 b 496 1291 636 1226 572 1291 b 353 1150 418 1291 353 1227 b 496 1008 353 1074 418 1008 z m 496 1067 b 411 1150 450 1067 411 1105 b 496 1232 411 1194 450 1232 b 578 1150 539 1232 578 1194 b 496 1067 578 1106 539 1067 z m 848 900 l 765 900 l 765 400 b 760 291 765 347 764 335 b 748 237 758 269 753 252 b 685 139 737 210 717 171 b 493 66 637 91 572 66 b 300 140 411 66 347 91 b 233 267 264 180 241 219 b 222 400 224 314 222 340 l 222 900 l 139 900 l 139 416 b 146 273 139 348 138 334 b 162 203 149 245 155 221 b 244 77 176 165 203 115 b 494 -14 307 16 391 -14 b 747 81 600 -14 684 18 b 835 240 794 127 823 177 b 848 415 848 301 848 338 z "},"ů":{"ha":863,"x_min":0,"x_max":0,"o":"m 433 796 b 532 838 471 796 504 810 b 574 937 559 866 574 899 b 433 1078 574 1013 509 1078 b 290 937 355 1078 290 1015 b 433 796 290 861 355 796 z m 433 854 b 349 937 387 854 349 892 b 433 1019 349 981 387 1019 b 515 937 477 1019 515 981 b 433 854 515 893 477 854 z m 720 0 l 720 669 l 636 669 l 636 340 b 396 68 636 177 541 68 b 277 110 345 68 304 82 b 231 208 247 140 233 182 b 229 265 230 221 229 240 l 229 669 l 146 669 l 146 254 b 164 122 146 194 146 170 b 204 56 173 98 186 76 b 379 -14 244 9 302 -14 b 636 140 466 -14 576 23 l 642 0 z "},"Ű":{"ha":987,"x_min":0,"x_max":0,"o":"m 294 1063 l 339 1013 l 581 1219 l 528 1278 z m 549 1067 l 589 1013 l 828 1200 l 779 1263 z m 848 900 l 765 900 l 765 400 b 760 291 765 347 764 335 b 748 237 758 269 753 252 b 685 139 737 210 717 171 b 493 66 637 91 572 66 b 300 140 411 66 347 91 b 233 267 264 180 241 219 b 222 400 224 314 222 340 l 222 900 l 139 900 l 139 416 b 146 273 139 348 138 334 b 162 203 149 245 155 221 b 244 77 176 165 203 115 b 494 -14 307 16 391 -14 b 747 81 600 -14 684 18 b 835 240 794 127 823 177 b 848 415 848 301 848 338 z "},"ű":{"ha":863,"x_min":0,"x_max":0,"o":"m 232 850 l 277 800 l 518 1007 l 465 1065 z m 486 854 l 526 800 l 765 987 l 717 1050 z m 720 0 l 720 669 l 636 669 l 636 340 b 396 68 636 177 541 68 b 277 110 345 68 304 82 b 231 208 247 140 233 182 b 229 265 230 221 229 240 l 229 669 l 146 669 l 146 254 b 164 122 146 194 146 170 b 204 56 173 98 186 76 b 379 -14 244 9 302 -14 b 636 140 466 -14 576 23 l 642 0 z "},"Ų":{"ha":987,"x_min":0,"x_max":0,"o":"m 578 -193 b 529 -98 545 -167 529 -135 b 604 0 534 -52 563 -27 b 747 81 660 14 707 41 b 835 240 794 127 823 177 b 848 415 848 301 848 338 l 848 900 l 765 900 l 765 400 b 760 291 765 347 764 335 b 748 237 758 269 753 252 b 685 139 737 210 717 171 b 493 66 637 91 572 66 b 300 140 411 66 347 91 b 233 267 264 180 241 219 b 222 400 224 314 222 340 l 222 900 l 139 900 l 139 416 b 146 273 139 348 138 334 b 162 203 149 245 155 221 b 244 77 176 165 203 115 b 488 -14 306 18 387 -12 b 453 -109 465 -43 453 -74 b 524 -243 453 -162 477 -207 z "},"ų":{"ha":863,"x_min":0,"x_max":0,"o":"m 693 -193 b 644 -98 661 -167 644 -135 b 720 0 649 -52 678 -27 l 720 669 l 636 669 l 636 340 b 396 68 636 177 541 68 b 277 110 345 68 304 82 b 231 208 247 140 233 182 b 229 265 230 221 229 240 l 229 669 l 146 669 l 146 254 b 164 122 146 194 146 170 b 204 56 173 98 186 76 b 379 -14 244 9 302 -14 b 636 140 466 -14 576 23 l 640 22 b 568 -109 592 -16 568 -60 b 639 -243 568 -162 592 -207 l 693 -193 z "},"Ÿ":{"ha":768,"x_min":0,"x_max":0,"o":"m 250 1168 b 192 1111 217 1168 192 1143 b 250 1053 192 1078 218 1053 b 307 1111 282 1053 307 1079 b 250 1168 307 1143 282 1168 z m 522 1168 b 464 1111 489 1168 464 1143 b 522 1053 464 1078 490 1053 b 579 1111 554 1053 579 1079 b 522 1168 579 1143 554 1168 z m 419 358 l 747 900 l 665 900 l 380 429 l 114 900 l 21 900 l 336 353 l 336 0 l 419 0 z "},"Ź":{"ha":846,"x_min":0,"x_max":0,"o":"m 301 1068 l 338 1013 l 606 1183 l 562 1249 z m 762 81 l 195 81 l 729 844 l 729 914 l 96 914 l 96 833 l 624 833 l 83 68 l 83 0 l 762 0 z "},"ź":{"ha":718,"x_min":0,"x_max":0,"o":"m 240 856 l 277 800 l 545 971 l 501 1036 z m 628 79 l 203 79 l 614 602 l 614 669 l 121 669 l 121 589 l 504 589 l 90 68 l 90 0 l 628 0 z "},"Ż":{"ha":846,"x_min":0,"x_max":0,"o":"m 424 1168 b 366 1111 391 1168 366 1143 b 424 1053 366 1078 391 1053 b 481 1111 456 1053 481 1079 b 424 1168 481 1143 456 1168 z m 762 81 l 195 81 l 729 844 l 729 914 l 96 914 l 96 833 l 624 833 l 83 68 l 83 0 l 762 0 z "},"ż":{"ha":718,"x_min":0,"x_max":0,"o":"m 363 956 b 304 899 330 956 304 930 b 363 840 304 866 330 840 b 419 899 395 840 419 866 b 363 956 419 930 395 956 z m 628 79 l 203 79 l 614 602 l 614 669 l 121 669 l 121 589 l 504 589 l 90 68 l 90 0 l 628 0 z "},"Ž":{"ha":846,"x_min":0,"x_max":0,"o":"m 633 1152 l 600 1197 l 436 1095 l 272 1197 l 239 1152 l 436 1013 z m 762 81 l 195 81 l 729 844 l 729 914 l 96 914 l 96 833 l 624 833 l 83 68 l 83 0 l 762 0 z "},"ž":{"ha":718,"x_min":0,"x_max":0,"o":"m 572 939 l 539 985 l 375 882 l 211 985 l 178 939 l 375 800 z m 628 79 l 203 79 l 614 602 l 614 669 l 121 669 l 121 589 l 504 589 l 90 68 l 90 0 l 628 0 z "},"ſ":{"ha":496,"x_min":0,"x_max":0,"o":"m 298 694 b 403 865 298 808 333 865 b 481 859 433 865 459 863 l 496 930 b 404 942 467 938 437 942 b 215 669 278 941 215 850 l 77 669 l 77 591 l 215 591 l 215 0 l 298 0 z "},"Ș":{"ha":863,"x_min":0,"x_max":0,"o":"m 746 857 b 467 914 668 895 575 914 b 220 851 366 914 284 893 b 123 675 155 808 123 750 b 241 494 123 588 163 534 b 437 424 296 465 351 448 b 682 229 600 380 682 326 b 443 68 682 107 549 68 b 147 170 334 68 236 102 l 97 100 b 443 -14 193 24 308 -14 b 675 54 536 -14 614 9 b 766 236 736 99 766 159 b 694 399 766 309 746 359 b 476 497 642 439 583 465 l 449 505 b 291 561 371 529 333 541 b 243 591 269 570 254 581 b 210 682 222 612 210 641 b 461 832 210 775 309 832 b 594 817 501 832 545 827 b 713 779 643 807 682 795 z m 482 -334 b 536 -165 524 -229 536 -193 b 468 -94 536 -125 506 -94 b 404 -158 435 -94 404 -125 b 457 -224 404 -194 425 -219 b 425 -311 452 -243 441 -273 z "},"ș":{"ha":745,"x_min":0,"x_max":0,"o":"m 596 636 b 366 684 522 668 446 684 b 129 500 224 684 129 616 b 364 313 129 396 196 345 b 549 178 487 288 549 243 b 399 65 549 111 488 65 b 150 131 309 65 227 87 l 111 56 b 376 -14 192 9 281 -14 b 635 179 544 -14 635 64 b 408 386 635 292 561 353 b 215 503 265 418 215 444 b 351 606 215 567 262 606 b 567 561 425 606 497 591 z m 399 -334 b 453 -165 440 -229 453 -193 b 385 -94 453 -125 422 -94 b 321 -158 352 -94 321 -125 b 374 -224 321 -194 342 -219 b 342 -311 368 -243 357 -273 z "},"Ț":{"ha":728,"x_min":0,"x_max":0,"o":"m 707 900 l 21 900 l 21 819 l 322 819 l 322 0 l 406 0 l 406 819 l 707 819 z m 378 -334 b 432 -165 419 -229 432 -193 b 364 -94 432 -125 401 -94 b 300 -158 331 -94 300 -125 b 353 -224 300 -194 321 -219 b 321 -311 347 -243 336 -273 z "},"ț":{"ha":583,"x_min":0,"x_max":0,"o":"m 472 92 b 387 68 430 73 425 71 b 314 94 354 68 330 77 b 292 199 292 125 291 153 l 292 591 l 481 591 l 481 669 l 292 669 l 292 844 l 208 844 l 208 669 l 69 669 l 69 591 l 208 591 l 208 183 b 220 83 208 138 208 119 b 248 35 227 64 235 49 b 371 -14 275 3 317 -14 b 445 -4 403 -14 425 -7 b 473 7 450 -2 469 5 b 500 20 475 7 498 20 z m 372 -334 b 427 -165 414 -229 427 -193 b 358 -94 427 -125 396 -94 b 294 -158 326 -94 294 -125 b 347 -224 294 -194 315 -219 b 315 -311 342 -243 331 -273 z "},"ˆ":{"ha":561,"x_min":0,"x_max":0,"o":"m 478 846 l 281 985 l 83 846 l 117 800 l 281 903 l 444 800 z "},"˚":{"ha":450,"x_min":0,"x_max":0,"o":"m 227 796 b 367 937 302 796 367 862 b 227 1078 367 1013 302 1078 b 83 937 149 1078 83 1015 b 227 796 83 861 149 796 z m 227 854 b 142 937 180 854 142 892 b 227 1019 142 981 180 1019 b 309 937 270 1019 309 981 b 227 854 309 893 270 854 z "},"˜":{"ha":606,"x_min":0,"x_max":0,"o":"m 143 835 b 207 914 155 888 176 914 b 282 876 239 914 258 897 b 385 836 313 850 347 836 b 524 956 452 836 498 883 l 468 981 b 386 904 447 934 425 904 b 323 932 366 904 345 913 b 214 982 283 964 252 982 b 83 852 146 982 102 929 l 143 835 z "}," ":{"ha":645,"x_min":0,"x_max":0,"o":""}," ":{"ha":1291,"x_min":0,"x_max":0,"o":""}," ":{"ha":645,"x_min":0,"x_max":0,"o":""}," ":{"ha":1291,"x_min":0,"x_max":0,"o":""}," ":{"ha":430,"x_min":0,"x_max":0,"o":""}," ":{"ha":322,"x_min":0,"x_max":0,"o":""}," ":{"ha":215,"x_min":0,"x_max":0,"o":""}," ":{"ha":215,"x_min":0,"x_max":0,"o":""}," ":{"ha":161,"x_min":0,"x_max":0,"o":""}," ":{"ha":222,"x_min":0,"x_max":0,"o":""}," ":{"ha":71,"x_min":0,"x_max":0,"o":""},"‐":{"ha":667,"x_min":0,"x_max":0,"o":"m 570 400 l 97 400 l 97 319 l 570 319 z "},"‑":{"ha":667,"x_min":0,"x_max":0,"o":"m 570 400 l 97 400 l 97 319 l 570 319 z "},"‒":{"ha":667,"x_min":0,"x_max":0,"o":"m 570 400 l 97 400 l 97 319 l 570 319 z "},"–":{"ha":805,"x_min":0,"x_max":0,"o":"m 708 400 l 97 400 l 97 319 l 708 319 z "},"—":{"ha":944,"x_min":0,"x_max":0,"o":"m 847 400 l 97 400 l 97 319 l 847 319 z "},"‘":{"ha":395,"x_min":0,"x_max":0,"o":"m 197 593 b 272 667 242 593 272 628 b 191 741 272 712 241 741 b 278 971 201 802 231 878 l 211 1003 b 118 694 149 879 118 777 b 197 593 118 631 151 593 z "},"’":{"ha":395,"x_min":0,"x_max":0,"o":"m 184 539 b 278 847 247 664 278 766 b 199 949 278 910 245 949 b 123 875 155 949 123 914 b 205 802 123 829 155 801 b 118 571 195 741 165 664 l 184 539 z "},"‚":{"ha":395,"x_min":0,"x_max":0,"o":"m 184 -114 b 278 195 247 11 278 114 b 199 296 278 258 245 296 b 123 222 155 296 123 262 b 205 149 123 177 155 148 b 118 -82 195 87 165 11 l 184 -114 z "},"“":{"ha":659,"x_min":0,"x_max":0,"o":"m 197 593 b 272 667 242 593 272 628 b 191 741 272 712 241 741 b 278 971 201 802 231 878 l 211 1003 b 118 694 149 879 118 777 b 197 593 118 631 151 593 z m 461 593 b 536 667 506 593 536 628 b 454 741 536 712 505 741 b 542 971 465 802 494 878 l 475 1003 b 382 694 413 879 382 777 b 461 593 382 631 415 593 z "},"”":{"ha":659,"x_min":0,"x_max":0,"o":"m 449 538 b 542 846 511 662 542 764 b 463 947 542 909 509 947 b 387 873 418 947 387 913 b 469 800 387 828 418 800 b 382 570 458 739 429 663 z m 184 538 b 278 846 247 663 278 765 b 199 947 278 909 245 947 b 123 873 155 947 123 913 b 205 800 123 828 155 800 b 118 570 195 739 165 663 z "},"„":{"ha":659,"x_min":0,"x_max":0,"o":"m 449 -115 b 542 193 511 9 542 111 b 463 294 542 256 509 294 b 387 221 418 294 387 260 b 469 147 387 176 418 146 b 382 -83 458 86 429 9 z m 184 -115 b 278 193 247 9 278 113 b 199 294 278 256 245 294 b 123 221 155 294 123 260 b 205 147 123 176 155 146 b 118 -83 195 86 165 9 z "},"•":{"ha":513,"x_min":0,"x_max":0,"o":"m 256 473 b 119 338 181 473 119 413 b 256 200 119 261 181 200 b 393 338 332 200 393 262 b 256 473 393 413 332 473 z "},"…":{"ha":1154,"x_min":0,"x_max":0,"o":"m 196 140 b 118 64 154 140 118 105 b 196 -14 118 22 154 -14 b 272 64 237 -14 272 22 b 196 140 272 105 237 140 z m 571 140 b 493 64 529 140 493 105 b 571 -14 493 22 529 -14 b 647 64 612 -14 647 22 b 571 140 647 105 612 140 z m 960 140 b 882 64 918 140 882 105 b 960 -14 882 22 918 -14 b 1036 64 1001 -14 1036 22 b 960 140 1036 105 1001 140 z "}," ":{"ha":258,"x_min":0,"x_max":0,"o":""},"‰":{"ha":1797,"x_min":0,"x_max":0,"o":"m 397 -64 l 1051 1071 l 989 1103 l 335 -29 z m 289 1100 b 41 789 123 1100 41 950 b 289 465 41 623 123 465 b 534 789 454 465 534 623 b 289 1100 534 949 454 1100 z m 363 1003 b 450 787 427 964 450 874 b 288 542 450 667 408 542 b 126 787 168 542 126 667 b 213 1003 126 874 150 963 b 363 1003 255 1030 320 1030 z m 1516 -9 b 1756 314 1676 -9 1756 149 b 1524 625 1756 474 1679 625 b 1305 471 1420 625 1345 565 b 1095 625 1267 565 1196 625 b 854 314 935 625 854 475 b 1095 -9 854 148 934 -9 b 1304 150 1197 -9 1268 52 b 1516 -9 1342 50 1413 -9 z m 1175 528 b 1263 313 1240 489 1263 399 b 1100 66 1263 193 1220 66 b 939 313 981 66 939 193 b 1025 528 939 399 962 488 b 1175 528 1067 555 1133 555 z m 1584 528 b 1671 313 1648 489 1671 399 b 1508 66 1671 193 1628 66 b 1348 313 1390 66 1348 193 b 1434 528 1348 399 1371 489 b 1584 528 1476 555 1540 555 z "},"‹":{"ha":469,"x_min":0,"x_max":0,"o":"m 371 161 l 184 346 l 372 532 l 322 585 l 83 345 l 317 109 z "},"›":{"ha":469,"x_min":0,"x_max":0,"o":"m 386 345 l 153 581 l 98 528 l 285 343 l 97 157 l 147 104 z "}," ":{"ha":322,"x_min":0,"x_max":0,"o":""},"⁰":{"ha":615,"x_min":0,"x_max":0,"o":"m 309 1100 b 61 789 143 1100 61 950 b 309 465 61 623 142 465 b 554 789 473 465 554 623 b 309 1100 554 949 473 1100 z m 382 1003 b 469 787 446 963 469 874 b 307 542 469 667 428 542 b 146 787 188 542 146 667 b 233 1003 146 874 170 963 b 382 1003 275 1030 340 1030 z "},"ⁱ":{"ha":267,"x_min":0,"x_max":0,"o":"m 134 1128 b 82 1079 104 1128 82 1108 b 134 1031 82 1051 104 1031 b 183 1079 161 1031 183 1051 b 134 1128 183 1108 161 1128 z m 93 475 l 174 475 l 174 928 l 93 928 z "},"⁴":{"ha":591,"x_min":0,"x_max":0,"o":"m 153 685 l 350 1007 l 350 685 z m 503 685 l 429 685 l 429 1082 l 309 1082 l 52 673 l 52 610 l 350 610 l 350 475 l 429 475 l 429 610 l 503 610 z "},"⁵":{"ha":522,"x_min":0,"x_max":0,"o":"m 254 465 b 461 671 376 467 461 548 b 272 864 461 785 384 864 b 171 843 231 864 197 857 l 171 1006 l 443 1006 l 443 1082 l 90 1082 l 90 783 l 163 765 b 254 791 185 783 216 791 b 376 664 328 791 376 739 b 256 542 376 591 328 542 b 117 606 201 542 155 563 l 61 550 b 254 465 110 495 174 467 z "},"⁶":{"ha":559,"x_min":0,"x_max":0,"o":"m 498 675 b 307 861 498 785 416 861 b 139 783 230 860 174 834 b 330 1015 152 921 213 1015 b 437 996 371 1015 407 1008 l 465 1067 b 335 1092 429 1084 385 1092 b 61 741 155 1092 61 954 b 279 465 61 563 143 465 b 498 675 415 467 498 547 z m 415 667 b 288 542 415 591 363 542 b 151 671 206 542 151 595 b 288 786 151 744 208 784 b 415 667 361 786 415 740 z "},"⁷":{"ha":425,"x_min":0,"x_max":0,"o":"m 383 1021 l 383 1082 l 18 1082 l 18 1006 l 294 1006 l 81 492 l 151 465 z "},"⁸":{"ha":608,"x_min":0,"x_max":0,"o":"m 304 465 b 539 642 428 465 539 520 b 425 790 539 715 496 765 b 511 928 483 819 511 865 b 304 1092 511 1033 421 1092 b 93 926 184 1092 93 1032 b 182 789 93 863 123 817 b 69 637 106 760 69 710 b 304 465 69 518 182 465 z m 304 1015 b 427 921 374 1015 427 983 b 304 819 427 857 374 819 b 176 922 231 819 176 858 b 304 1015 176 984 232 1015 z m 304 753 b 453 647 391 753 453 719 b 304 542 453 576 389 542 b 154 648 219 542 154 577 b 304 753 154 719 220 753 z "},"⁹":{"ha":558,"x_min":0,"x_max":0,"o":"m 144 886 b 272 1015 144 964 196 1015 b 408 882 355 1015 408 962 b 271 760 408 804 350 760 b 144 886 200 760 144 810 z m 225 465 b 498 811 419 465 498 607 b 278 1092 498 992 418 1092 b 61 878 145 1092 61 1005 b 252 685 61 763 143 685 b 419 762 322 685 383 713 b 229 542 408 643 357 542 b 121 561 185 542 149 548 l 94 490 b 225 465 131 473 174 465 z "},"⁺":{"ha":504,"x_min":0,"x_max":0,"o":"m 454 817 l 289 817 l 289 985 l 215 985 l 215 817 l 49 817 l 49 745 l 215 745 l 215 579 l 289 579 l 289 745 l 454 745 z "},"⁼":{"ha":522,"x_min":0,"x_max":0,"o":"m 464 899 l 58 899 l 58 825 l 464 825 z m 464 718 l 58 718 l 58 646 l 464 646 z "},"⁽":{"ha":342,"x_min":0,"x_max":0,"o":"m 273 1175 b 65 764 134 1067 65 930 b 272 350 65 596 134 458 l 319 407 b 139 764 199 500 139 618 b 319 1121 139 909 199 1028 z "},"⁾":{"ha":342,"x_min":0,"x_max":0,"o":"m 69 350 b 278 761 208 458 278 595 b 71 1175 278 928 209 1066 l 25 1118 b 204 761 144 1025 204 906 b 24 404 204 616 144 497 z "},"ⁿ":{"ha":601,"x_min":0,"x_max":0,"o":"m 319 861 b 406 829 357 861 386 850 b 428 729 427 798 428 776 l 428 475 l 509 475 l 509 746 b 472 885 509 804 508 836 b 339 937 441 920 397 937 b 171 848 271 937 208 911 l 163 928 l 93 928 l 93 475 l 174 475 l 174 720 b 319 861 182 809 237 861 z "},"₀":{"ha":615,"x_min":0,"x_max":0,"o":"m 309 625 b 61 314 143 625 61 475 b 309 -9 61 148 142 -9 b 554 314 473 -9 554 148 b 309 625 554 474 473 625 z m 382 528 b 469 313 446 488 469 399 b 307 66 469 193 428 66 b 146 313 188 66 146 193 b 233 528 146 399 170 488 b 382 528 275 555 340 555 z "},"₁":{"ha":411,"x_min":0,"x_max":0,"o":"m 300 607 l 210 607 l 33 439 l 85 386 l 220 518 l 220 0 l 300 0 z "},"₂":{"ha":553,"x_min":0,"x_max":0,"o":"m 489 77 l 207 77 b 395 235 293 138 342 177 b 471 414 446 291 471 349 b 264 615 471 543 386 615 b 65 513 174 615 106 578 l 132 472 b 260 538 161 516 203 538 b 392 406 339 538 391 495 b 366 315 392 374 380 341 b 294 231 350 287 318 255 b 192 150 269 210 221 172 l 72 64 l 72 0 l 489 0 z "},"₃":{"ha":517,"x_min":0,"x_max":0,"o":"m 236 -9 b 463 171 372 -7 463 56 b 340 315 463 243 422 291 b 436 452 404 340 436 386 b 256 616 436 551 357 616 b 78 559 185 616 126 597 l 121 500 b 243 538 158 525 199 538 b 353 440 304 538 353 501 b 196 343 353 375 296 343 l 196 275 b 378 168 317 275 378 239 b 240 69 378 105 321 69 b 89 139 178 69 128 92 l 33 85 b 236 -9 80 22 148 -9 z "},"₄":{"ha":591,"x_min":0,"x_max":0,"o":"m 153 210 l 350 532 l 350 210 z m 503 210 l 429 210 l 429 607 l 309 607 l 52 199 l 52 135 l 350 135 l 350 0 l 429 0 l 429 135 l 503 135 z "},"₅":{"ha":522,"x_min":0,"x_max":0,"o":"m 254 -9 b 461 196 376 -7 461 73 b 272 389 461 311 384 389 b 171 368 230 389 196 382 l 171 530 l 443 530 l 443 607 l 90 607 l 90 309 l 163 290 b 254 317 185 308 216 317 b 376 189 328 317 376 264 b 256 66 376 115 328 66 b 117 131 202 66 155 88 l 61 75 b 254 -9 110 20 174 -8 z "},"₆":{"ha":559,"x_min":0,"x_max":0,"o":"m 498 200 b 307 386 498 311 416 386 b 139 309 229 385 174 359 b 330 541 152 446 213 541 b 437 521 371 541 407 534 l 465 591 b 335 616 429 608 385 616 b 61 265 155 616 61 479 b 279 -9 61 86 141 -9 b 498 200 415 -9 498 74 z m 415 192 b 288 66 415 116 363 66 b 151 196 206 66 151 120 b 288 311 151 269 208 309 b 415 192 361 311 415 265 z "},"₇":{"ha":425,"x_min":0,"x_max":0,"o":"m 383 546 l 383 607 l 18 607 l 18 530 l 294 530 l 81 17 l 151 -9 z "},"₈":{"ha":608,"x_min":0,"x_max":0,"o":"m 304 -9 b 539 167 428 -9 539 45 b 425 315 539 240 496 290 b 511 453 483 345 511 391 b 304 616 511 563 414 616 b 93 452 184 616 93 557 b 182 314 93 388 123 342 b 69 163 106 286 69 235 b 304 -9 69 43 182 -9 z m 304 541 b 427 446 374 541 427 507 b 304 345 427 382 374 345 b 176 447 231 345 176 382 b 304 541 176 509 232 541 z m 304 278 b 453 172 391 278 453 244 b 304 66 453 101 389 66 b 154 174 219 66 154 102 b 304 278 154 244 220 278 z "},"₉":{"ha":558,"x_min":0,"x_max":0,"o":"m 144 411 b 272 541 144 488 196 541 b 408 407 355 541 408 488 b 271 285 408 329 350 285 b 144 411 200 285 144 334 z m 225 -9 b 498 336 419 -9 498 132 b 278 616 498 517 418 616 b 61 403 145 616 61 530 b 252 210 61 288 144 210 b 419 288 322 210 383 239 b 229 66 408 168 357 66 b 121 86 186 66 150 73 l 94 16 b 225 -9 131 -1 174 -9 z "},"₊":{"ha":504,"x_min":0,"x_max":0,"o":"m 454 119 l 289 119 l 289 288 l 215 288 l 215 119 l 49 119 l 49 47 l 215 47 l 215 -118 l 289 -118 l 289 47 l 454 47 z "},"₌":{"ha":522,"x_min":0,"x_max":0,"o":"m 464 201 l 58 201 l 58 127 l 464 127 z m 464 21 l 58 21 l 58 -52 l 464 -52 z "},"₍":{"ha":342,"x_min":0,"x_max":0,"o":"m 273 700 b 65 289 134 592 65 455 b 272 -125 65 121 134 -16 l 319 -68 b 139 289 199 25 139 144 b 319 646 139 434 199 553 z "},"₎":{"ha":342,"x_min":0,"x_max":0,"o":"m 69 -125 b 278 286 208 -16 278 121 b 71 700 278 453 209 591 l 25 643 b 204 286 144 550 204 431 b 24 -71 204 141 144 22 z "},"€":{"ha":823,"x_min":0,"x_max":0,"o":"m 732 118 b 532 69 669 89 593 69 b 265 286 385 69 289 151 l 616 286 l 616 364 l 261 364 b 514 602 270 510 373 602 b 732 553 607 602 656 589 l 768 624 b 518 684 694 664 610 684 b 175 364 314 684 186 562 l 41 364 l 41 286 l 176 286 b 514 -12 195 101 321 -12 b 760 46 597 -14 692 9 z "},"™":{"ha":1440,"x_min":0,"x_max":0,"o":"m 1051 475 l 1254 1019 l 1254 475 l 1333 475 l 1333 1083 l 1193 1083 l 990 529 l 778 1083 l 635 1083 l 635 475 l 714 475 l 714 1015 l 924 475 z m 500 1082 l 12 1082 l 12 1006 l 215 1006 l 215 475 l 297 475 l 297 1006 l 500 1006 z "},"⅐":{"ha":1389,"x_min":0,"x_max":0,"o":"m 329 -64 l 983 1071 l 921 1103 l 267 -29 z m 357 1082 l 267 1082 l 90 914 l 142 861 l 277 993 l 277 475 l 357 475 z m 1210 546 l 1210 607 l 844 607 l 844 530 l 1121 530 l 907 17 l 978 -9 z "},"⅑":{"ha":1389,"x_min":0,"x_max":0,"o":"m 329 -64 l 983 1071 l 921 1103 l 267 -29 z m 357 1082 l 267 1082 l 90 914 l 142 861 l 277 993 l 277 475 l 357 475 z m 946 411 b 1074 541 946 488 998 541 b 1210 407 1156 541 1210 488 b 1072 285 1210 329 1152 285 b 946 411 1002 285 946 334 z m 1026 -9 b 1300 336 1221 -9 1300 132 b 1079 616 1300 517 1219 616 b 863 403 946 616 863 530 b 1053 210 863 288 945 210 b 1221 288 1123 210 1185 239 b 1031 66 1210 168 1158 66 b 922 86 987 66 951 73 l 896 16 b 1026 -9 932 -1 976 -9 z "},"⅒":{"ha":1805,"x_min":0,"x_max":0,"o":"m 329 -64 l 983 1071 l 921 1103 l 267 -29 z m 357 1082 l 267 1082 l 90 914 l 142 861 l 277 993 l 277 475 l 357 475 z m 1439 625 b 1192 314 1274 625 1192 475 b 1439 -9 1192 148 1273 -9 b 1685 314 1604 -9 1685 148 b 1439 625 1685 474 1604 625 z m 1050 607 l 960 607 l 783 439 l 835 386 l 970 518 l 970 0 l 1050 0 z m 1513 528 b 1600 313 1576 488 1600 399 b 1438 66 1600 193 1558 66 b 1276 313 1318 66 1276 193 b 1363 528 1276 399 1300 488 b 1513 528 1405 555 1470 555 z "},"⅓":{"ha":1389,"x_min":0,"x_max":0,"o":"m 329 -64 l 983 1071 l 921 1103 l 267 -29 z m 357 1082 l 267 1082 l 90 914 l 142 861 l 277 993 l 277 475 l 357 475 z m 983 -9 b 1210 171 1119 -7 1210 56 b 1088 315 1210 243 1169 291 b 1183 452 1152 340 1183 386 b 1003 616 1183 551 1104 616 b 825 559 932 616 873 597 l 868 500 b 990 538 905 525 946 538 b 1100 440 1052 538 1100 501 b 943 343 1100 375 1044 343 l 943 275 b 1125 168 1065 275 1125 239 b 987 69 1125 105 1069 69 b 836 139 926 69 876 92 l 781 85 b 983 -9 827 22 895 -9 z "},"⅔":{"ha":1389,"x_min":0,"x_max":0,"o":"m 385 -64 l 1039 1071 l 977 1103 l 322 -29 z m 504 551 l 222 551 b 380 677 289 600 332 631 b 437 744 404 701 423 723 b 486 889 467 785 486 837 b 279 1090 486 1018 401 1090 b 81 987 191 1090 121 1053 l 147 947 b 275 1013 175 991 218 1013 b 407 880 355 1013 406 970 b 381 789 407 848 395 816 b 309 707 366 762 334 728 b 208 625 286 683 237 647 b 87 539 181 608 114 558 l 87 475 l 504 475 z m 1039 -9 b 1265 171 1175 -7 1265 56 b 1143 315 1265 243 1225 291 b 1239 452 1207 340 1239 386 b 1059 616 1239 551 1160 616 b 880 559 987 616 928 597 l 924 500 b 1046 538 961 525 1002 538 b 1156 440 1107 538 1156 501 b 999 343 1156 375 1099 343 l 999 275 b 1181 168 1120 275 1181 239 b 1043 69 1181 105 1124 69 b 892 139 981 69 931 92 l 836 85 b 1039 -9 883 22 951 -9 z "},"⅕":{"ha":1389,"x_min":0,"x_max":0,"o":"m 329 -64 l 983 1071 l 921 1103 l 267 -29 z m 357 1082 l 267 1082 l 90 914 l 142 861 l 277 993 l 277 475 l 357 475 z m 1008 -9 b 1215 196 1131 -7 1215 73 b 1026 389 1215 311 1138 389 b 925 368 984 389 950 382 l 925 530 l 1197 530 l 1197 607 l 844 607 l 844 309 l 917 290 b 1008 317 939 308 970 317 b 1131 189 1082 317 1131 264 b 1010 66 1131 115 1082 66 b 871 131 956 66 909 88 l 815 75 b 1008 -9 864 20 928 -8 z "},"⅖":{"ha":1389,"x_min":0,"x_max":0,"o":"m 385 -64 l 1039 1071 l 977 1103 l 322 -29 z m 490 551 l 208 551 b 366 677 275 600 318 631 b 423 744 389 701 409 723 b 472 889 452 785 472 837 b 265 1090 472 1018 387 1090 b 66 987 176 1090 107 1053 l 134 947 b 261 1013 161 991 204 1013 b 393 880 340 1013 393 970 b 368 789 393 848 382 816 b 296 707 352 762 320 728 b 194 625 272 683 223 647 b 74 539 168 608 100 558 l 74 475 l 490 475 z m 1064 -9 b 1271 196 1186 -7 1271 73 b 1082 389 1271 311 1194 389 b 981 368 1040 389 1006 382 l 981 530 l 1253 530 l 1253 607 l 900 607 l 900 309 l 972 290 b 1064 317 995 308 1025 317 b 1186 189 1137 317 1186 264 b 1065 66 1186 115 1138 66 b 926 131 1012 66 965 88 l 871 75 b 1064 -9 920 20 984 -8 z "},"⅗":{"ha":1389,"x_min":0,"x_max":0,"o":"m 385 -64 l 1039 1071 l 977 1103 l 322 -29 z m 279 465 b 505 646 415 467 505 531 b 383 790 505 718 465 766 b 479 926 445 814 479 862 b 298 1092 479 1026 399 1092 b 121 1035 228 1092 169 1073 l 164 975 b 286 1013 201 1000 242 1013 b 396 916 348 1013 396 977 b 239 818 396 850 339 818 l 239 750 b 421 643 360 750 421 714 b 283 545 421 580 365 545 b 132 614 222 545 171 568 l 77 559 b 279 465 123 496 191 465 z m 1064 -9 b 1271 196 1186 -7 1271 73 b 1082 389 1271 311 1194 389 b 981 368 1040 389 1006 382 l 981 530 l 1253 530 l 1253 607 l 900 607 l 900 309 l 972 290 b 1064 317 995 308 1025 317 b 1186 189 1137 317 1186 264 b 1065 66 1186 115 1138 66 b 926 131 1012 66 965 88 l 871 75 b 1064 -9 920 20 984 -8 z "},"⅘":{"ha":1389,"x_min":0,"x_max":0,"o":"m 385 -64 l 1039 1071 l 977 1103 l 322 -29 z m 158 685 l 355 1007 l 355 685 z m 509 685 l 435 685 l 435 1082 l 314 1082 l 57 673 l 57 610 l 355 610 l 355 475 l 435 475 l 435 610 l 509 610 z m 1064 -9 b 1271 196 1186 -7 1271 73 b 1082 389 1271 311 1194 389 b 981 368 1040 389 1006 382 l 981 530 l 1253 530 l 1253 607 l 900 607 l 900 309 l 972 290 b 1064 317 995 308 1025 317 b 1186 189 1137 317 1186 264 b 1065 66 1186 115 1138 66 b 926 131 1012 66 965 88 l 871 75 b 1064 -9 920 20 984 -8 z "},"⅙":{"ha":1389,"x_min":0,"x_max":0,"o":"m 329 -64 l 983 1071 l 921 1103 l 267 -29 z m 357 1082 l 267 1082 l 90 914 l 142 861 l 277 993 l 277 475 l 357 475 z m 1253 200 b 1061 386 1253 311 1170 386 b 893 309 983 385 928 359 b 1084 541 906 446 967 541 b 1192 521 1125 541 1161 534 l 1219 591 b 1089 616 1183 608 1139 616 b 815 265 909 616 815 479 b 1034 -9 815 86 895 -9 b 1253 200 1169 -9 1253 74 z m 1169 192 b 1042 66 1169 116 1118 66 b 905 196 960 66 905 120 b 1042 311 905 269 962 309 b 1169 192 1115 311 1169 265 z "},"⅚":{"ha":1389,"x_min":0,"x_max":0,"o":"m 385 -64 l 1039 1071 l 977 1103 l 322 -29 z m 301 465 b 509 671 423 467 509 548 b 319 864 509 785 431 864 b 218 843 278 864 245 857 l 218 1006 l 490 1006 l 490 1082 l 138 1082 l 138 783 l 210 765 b 301 791 232 783 262 791 b 424 664 374 791 424 739 b 302 542 424 591 375 542 b 164 606 249 542 203 563 l 109 550 b 301 465 157 495 222 467 z m 1308 200 b 1117 386 1308 311 1225 386 b 949 309 1039 385 983 359 b 1140 541 962 446 1023 541 b 1247 521 1181 541 1217 534 l 1275 591 b 1145 616 1238 608 1195 616 b 871 265 965 616 871 479 b 1089 -9 871 86 951 -9 b 1308 200 1225 -9 1308 74 z m 1225 192 b 1097 66 1225 116 1173 66 b 961 196 1016 66 961 120 b 1097 311 961 269 1018 309 b 1225 192 1171 311 1225 265 z "},"⅛":{"ha":1389,"x_min":0,"x_max":0,"o":"m 329 -64 l 983 1071 l 921 1103 l 267 -29 z m 357 1082 l 267 1082 l 90 914 l 142 861 l 277 993 l 277 475 l 357 475 z m 1022 -9 b 1257 167 1145 -9 1257 45 b 1143 315 1257 239 1219 288 b 1229 453 1200 345 1229 391 b 1022 616 1229 563 1132 616 b 811 452 902 616 811 557 b 900 314 811 388 841 342 b 787 163 825 286 787 235 b 1022 -9 787 43 899 -9 z m 1022 541 b 1145 446 1092 541 1145 507 b 1022 345 1145 382 1092 345 b 895 447 949 345 895 382 b 1022 541 895 509 949 541 z m 1022 278 b 1171 172 1108 278 1171 244 b 1022 66 1171 101 1107 66 b 872 174 943 66 872 98 b 1022 278 872 244 937 278 z "},"⅜":{"ha":1389,"x_min":0,"x_max":0,"o":"m 385 -64 l 1039 1071 l 977 1103 l 322 -29 z m 1078 -9 b 1312 167 1201 -9 1312 45 b 1198 315 1312 240 1269 290 b 1284 453 1256 345 1284 391 b 1078 616 1284 563 1187 616 b 867 452 958 616 867 557 b 956 314 867 388 897 342 b 843 163 880 286 843 235 b 1078 -9 843 43 955 -9 z m 279 465 b 505 646 415 467 505 531 b 383 790 505 718 465 766 b 479 926 445 814 479 862 b 298 1092 479 1026 399 1092 b 121 1035 228 1092 169 1073 l 164 975 b 286 1013 201 1000 242 1013 b 396 916 348 1013 396 977 b 239 818 396 850 339 818 l 239 750 b 421 643 360 750 421 714 b 283 545 421 580 365 545 b 132 614 222 545 171 568 l 77 559 b 279 465 123 496 191 465 z m 1078 541 b 1200 446 1147 541 1200 507 b 1078 345 1200 382 1147 345 b 950 447 1004 345 950 382 b 1078 541 950 509 1005 541 z m 1078 278 b 1226 172 1164 278 1226 244 b 1078 66 1226 101 1162 66 b 928 174 999 66 928 98 b 1078 278 928 244 993 278 z "},"⅝":{"ha":1389,"x_min":0,"x_max":0,"o":"m 385 -64 l 1039 1071 l 977 1103 l 322 -29 z m 1078 -9 b 1312 167 1201 -9 1312 45 b 1198 315 1312 240 1269 290 b 1284 453 1256 345 1284 391 b 1078 616 1284 563 1187 616 b 867 452 958 616 867 557 b 956 314 867 388 897 342 b 843 163 880 286 843 235 b 1078 -9 843 43 955 -9 z m 301 465 b 509 671 423 467 509 548 b 319 864 509 785 431 864 b 218 843 278 864 245 857 l 218 1006 l 490 1006 l 490 1082 l 138 1082 l 138 783 l 210 765 b 301 791 232 783 262 791 b 424 664 374 791 424 739 b 302 542 424 591 375 542 b 164 606 249 542 203 563 l 109 550 b 301 465 157 495 222 467 z m 1078 541 b 1200 446 1147 541 1200 507 b 1078 345 1200 382 1147 345 b 950 447 1004 345 950 382 b 1078 541 950 509 1005 541 z m 1078 278 b 1226 172 1164 278 1226 244 b 1078 66 1226 101 1162 66 b 928 174 999 66 928 98 b 1078 278 928 244 993 278 z "},"⅞":{"ha":1389,"x_min":0,"x_max":0,"o":"m 385 -64 l 1039 1071 l 977 1103 l 322 -29 z m 607 1021 l 607 1082 l 241 1082 l 241 1006 l 518 1006 l 304 492 l 375 465 z m 1078 -9 b 1312 167 1201 -9 1312 45 b 1198 315 1312 240 1269 290 b 1284 453 1256 345 1284 391 b 1078 616 1284 563 1187 616 b 867 452 958 616 867 557 b 956 314 867 388 897 342 b 843 163 880 286 843 235 b 1078 -9 843 43 955 -9 z m 1078 541 b 1200 446 1147 541 1200 507 b 1078 345 1200 382 1147 345 b 950 447 1004 345 950 382 b 1078 541 950 509 1005 541 z m 1078 278 b 1226 172 1164 278 1226 244 b 1078 66 1226 101 1162 66 b 928 174 999 66 928 98 b 1078 278 928 244 993 278 z "},"⅟":{"ha":1389,"x_min":0,"x_max":0,"o":"m 329 -64 l 983 1071 l 921 1103 l 267 -29 z m 357 1082 l 267 1082 l 90 914 l 142 861 l 277 993 l 277 475 l 357 475 z "},"↉":{"ha":1389,"x_min":0,"x_max":0,"o":"m 385 -64 l 1039 1071 l 977 1103 l 322 -29 z m 288 1100 b 40 789 122 1100 40 950 b 288 465 40 623 121 465 b 533 789 452 465 533 623 b 288 1100 533 949 452 1100 z m 361 1003 b 449 787 426 964 449 874 b 286 542 449 667 406 542 b 125 787 167 542 125 667 b 212 1003 125 874 149 963 b 361 1003 254 1030 319 1030 z m 1039 -9 b 1265 171 1175 -7 1265 56 b 1143 315 1265 243 1225 291 b 1239 452 1207 340 1239 386 b 1059 616 1239 551 1160 616 b 880 559 987 616 928 597 l 924 500 b 1046 538 961 525 1002 538 b 1156 440 1107 538 1156 501 b 999 343 1156 375 1099 343 l 999 275 b 1181 168 1120 275 1181 239 b 1043 69 1181 105 1124 69 b 892 139 981 69 931 92 l 836 85 b 1039 -9 883 22 951 -9 z "},"←":{"ha":1057,"x_min":0,"x_max":0,"o":"m 309 364 b 216 447 275 396 245 424 b 355 443 302 444 348 443 l 1014 443 l 1014 526 l 358 526 b 216 524 321 526 273 526 b 309 606 247 547 277 574 l 547 844 l 489 903 l 72 485 l 490 66 l 549 125 z "},"↑":{"ha":1058,"x_min":0,"x_max":0,"o":"m 571 656 b 568 798 571 693 570 741 b 650 705 593 765 621 734 l 889 467 l 947 525 l 529 942 l 111 524 l 170 465 l 408 705 b 492 798 444 742 471 772 b 488 659 489 712 488 666 l 488 0 l 571 0 l 571 656 z "},"→":{"ha":1057,"x_min":0,"x_max":0,"o":"m 990 485 l 572 903 l 514 844 l 754 606 b 846 522 793 568 824 541 b 707 526 760 525 714 526 l 49 526 l 49 443 l 704 443 b 846 446 741 443 789 444 b 754 364 815 422 785 395 l 515 125 l 574 66 z "},"↓":{"ha":1057,"x_min":0,"x_max":0,"o":"m 950 446 l 892 504 l 653 264 b 570 172 616 224 588 194 b 574 311 572 258 574 304 l 574 970 l 490 970 l 490 314 b 493 172 490 277 491 229 b 411 264 471 201 444 231 l 172 503 l 114 444 l 532 28 z "},"↔":{"ha":1364,"x_min":0,"x_max":0,"o":"m 1305 471 l 888 889 l 829 831 l 1069 591 b 1161 509 1105 557 1136 530 b 1022 513 1076 511 1029 513 l 345 513 b 203 510 307 513 260 512 b 294 591 233 534 264 561 l 533 831 l 475 889 l 58 471 l 476 53 l 534 111 l 294 350 b 203 433 255 387 224 415 b 342 429 288 431 334 429 l 1019 429 b 1161 432 1057 429 1104 430 b 1069 350 1133 410 1102 382 l 831 111 l 889 53 z "},"↕":{"ha":1058,"x_min":0,"x_max":0,"o":"m 947 265 l 889 323 l 650 83 b 567 -8 615 47 588 17 b 571 131 570 77 571 123 l 571 808 b 568 950 571 846 570 893 b 650 859 592 920 619 889 l 889 619 l 947 677 l 529 1095 l 111 676 l 170 618 l 408 859 b 492 950 446 898 473 928 b 488 811 489 865 488 819 l 488 134 b 490 -8 488 96 488 49 b 408 83 468 20 441 51 l 170 322 l 111 264 l 529 -153 z "},"↨":{"ha":1058,"x_min":0,"x_max":0,"o":"m 947 265 l 889 323 l 650 83 b 567 -8 615 47 588 17 b 571 131 570 77 571 123 l 571 808 b 568 950 571 846 570 893 b 650 859 592 920 619 889 l 889 619 l 947 677 l 529 1095 l 111 676 l 170 618 l 408 859 b 492 950 446 898 473 928 b 488 811 489 865 488 819 l 488 134 b 490 -8 488 96 488 49 b 408 83 468 20 441 51 l 170 322 l 111 264 l 529 -153 z m 900 -153 l 142 -153 l 142 -236 l 900 -236 z "},"⇐":{"ha":1057,"x_min":0,"x_max":0,"o":"m 354 307 b 456 304 398 305 432 304 l 1017 304 l 1017 387 l 272 387 b 174 471 227 427 193 455 b 272 554 219 508 252 536 l 1017 554 l 1017 637 l 458 637 b 355 636 435 637 377 636 l 550 831 l 492 889 l 75 471 l 493 53 l 551 111 z "},"⇑":{"ha":1058,"x_min":0,"x_max":0,"o":"m 696 0 l 696 558 b 694 661 696 582 694 640 l 889 467 l 947 525 l 529 942 l 111 524 l 170 465 l 366 663 b 363 561 363 618 363 585 l 363 0 l 446 0 l 446 745 b 529 843 486 790 513 823 b 612 745 566 798 594 765 l 612 0 z "},"⇒":{"ha":1057,"x_min":0,"x_max":0,"o":"m 990 469 l 572 888 l 514 829 l 711 633 b 610 636 667 635 633 636 l 49 636 l 49 553 l 793 553 b 892 469 834 516 867 488 b 793 386 842 429 810 401 l 49 386 l 49 302 l 607 302 b 710 304 631 302 688 304 l 515 110 l 574 52 z "},"⇓":{"ha":1057,"x_min":0,"x_max":0,"o":"m 947 431 l 889 489 l 693 292 b 696 393 695 336 696 370 l 696 954 l 612 954 l 612 210 b 529 111 572 164 545 131 b 446 210 492 157 464 189 l 446 954 l 363 954 l 363 396 b 364 293 363 372 364 315 l 170 488 l 111 429 l 529 12 z "},"⇔":{"ha":1364,"x_min":0,"x_max":0,"o":"m 1305 471 l 888 889 l 829 831 l 1026 635 b 928 637 983 637 951 637 l 441 637 b 339 636 418 637 360 636 l 533 831 l 475 889 l 58 471 l 476 53 l 534 111 l 338 307 b 439 304 382 305 416 304 l 925 304 b 1025 306 948 304 1004 306 l 831 111 l 889 53 z m 256 387 b 157 471 214 424 181 452 b 256 554 206 511 239 538 l 1108 554 b 1207 471 1149 517 1183 490 b 1108 387 1158 431 1125 403 z "},"◼":{"ha":667,"x_min":0,"x_max":0,"o":"m 0 0 l 667 0 l 667 667 l 0 667 z "},"ﬁ":{"ha":850,"x_min":0,"x_max":0,"o":"m 648 956 b 590 899 615 956 590 930 b 648 840 590 866 616 840 b 705 899 680 840 705 867 b 648 956 705 930 680 956 z m 607 0 l 690 0 l 690 669 l 607 669 z m 458 669 l 285 669 l 285 694 b 389 865 285 808 319 865 b 467 859 419 865 445 863 l 482 930 b 390 942 454 938 423 942 b 201 669 264 941 201 850 l 62 669 l 62 591 l 201 591 l 201 0 l 285 0 l 285 591 l 458 591 z "},"ﬂ":{"ha":850,"x_min":0,"x_max":0,"o":"m 690 0 l 690 928 l 607 928 l 607 0 z m 458 669 l 285 669 l 285 694 b 389 865 285 808 319 865 b 467 859 419 865 445 863 l 482 930 b 390 942 454 938 423 942 b 201 669 264 941 201 850 l 62 669 l 62 591 l 201 591 l 201 0 l 285 0 l 285 591 l 458 591 z "}}}
